<?xml version="1.0" encoding="utf-8" standalone="no"?>
<!DOCTYPE svg PUBLIC "-//W3C//DTD SVG 1.1//EN"
  "http://www.w3.org/Graphics/SVG/1.1/DTD/svg11.dtd">
<svg xmlns:xlink="http://www.w3.org/1999/xlink" width="305.457235pt" height="264.407344pt" viewBox="0 0 305.457235 264.407344" xmlns="http://www.w3.org/2000/svg" version="1.1">
 <metadata>
  <rdf:RDF xmlns:dc="http://purl.org/dc/elements/1.1/" xmlns:cc="http://creativecommons.org/ns#" xmlns:rdf="http://www.w3.org/1999/02/22-rdf-syntax-ns#">
   <cc:Work>
    <dc:type rdf:resource="http://purl.org/dc/dcmitype/StillImage"/>
    <dc:date>2025-09-27T21:27:34.106720</dc:date>
    <dc:format>image/svg+xml</dc:format>
    <dc:creator>
     <cc:Agent>
      <dc:title>Matplotlib v3.7.1, https://matplotlib.org/</dc:title>
     </cc:Agent>
    </dc:creator>
   </cc:Work>
  </rdf:RDF>
 </metadata>
 <defs>
  <style type="text/css">*{stroke-linejoin: round; stroke-linecap: butt}</style>
 </defs>
 <g id="figure_1">
  <g id="patch_1">
   <path d="M 0 264.407344 
L 305.457235 264.407344 
L 305.457235 0 
L 0 0 
z
" style="fill: #ffffff"/>
  </g>
  <g id="axes_1">
   <g id="patch_2">
    <path d="M 38.495 228.959219 
L 302.103529 228.959219 
L 302.103529 5.959219 
L 38.495 5.959219 
z
" style="fill: #ffffff"/>
   </g>
   <g id="matplotlib.axis_1">
    <g id="xtick_1">
     <g id="line2d_1">
      <defs>
       <path id="mb8f008506a" d="M 0 0 
L 0 3.5 
" style="stroke: #000000; stroke-width: 0.8"/>
      </defs>
      <g>
       <use xlink:href="#mb8f008506a" x="38.495" y="228.959219" style="stroke: #000000; stroke-width: 0.8"/>
      </g>
     </g>
     <g id="text_1">
      <!-- 0 -->
      <g transform="translate(35.31375 243.557656) scale(0.1 -0.1)">
       <defs>
        <path id="DejaVuSans-30" d="M 2034 4250 
Q 1547 4250 1301 3770 
Q 1056 3291 1056 2328 
Q 1056 1369 1301 889 
Q 1547 409 2034 409 
Q 2525 409 2770 889 
Q 3016 1369 3016 2328 
Q 3016 3291 2770 3770 
Q 2525 4250 2034 4250 
z
M 2034 4750 
Q 2819 4750 3233 4129 
Q 3647 3509 3647 2328 
Q 3647 1150 3233 529 
Q 2819 -91 2034 -91 
Q 1250 -91 836 529 
Q 422 1150 422 2328 
Q 422 3509 836 4129 
Q 1250 4750 2034 4750 
z
" transform="scale(0.015625)"/>
       </defs>
       <use xlink:href="#DejaVuSans-30"/>
      </g>
     </g>
    </g>
    <g id="xtick_2">
     <g id="line2d_2">
      <g>
       <use xlink:href="#mb8f008506a" x="90.182947" y="228.959219" style="stroke: #000000; stroke-width: 0.8"/>
      </g>
     </g>
     <g id="text_2">
      <!-- 10 -->
      <g transform="translate(83.820447 243.557656) scale(0.1 -0.1)">
       <defs>
        <path id="DejaVuSans-31" d="M 794 531 
L 1825 531 
L 1825 4091 
L 703 3866 
L 703 4441 
L 1819 4666 
L 2450 4666 
L 2450 531 
L 3481 531 
L 3481 0 
L 794 0 
L 794 531 
z
" transform="scale(0.015625)"/>
       </defs>
       <use xlink:href="#DejaVuSans-31"/>
       <use xlink:href="#DejaVuSans-30" x="63.623047"/>
      </g>
     </g>
    </g>
    <g id="xtick_3">
     <g id="line2d_3">
      <g>
       <use xlink:href="#mb8f008506a" x="141.870894" y="228.959219" style="stroke: #000000; stroke-width: 0.8"/>
      </g>
     </g>
     <g id="text_3">
      <!-- 20 -->
      <g transform="translate(135.508394 243.557656) scale(0.1 -0.1)">
       <defs>
        <path id="DejaVuSans-32" d="M 1228 531 
L 3431 531 
L 3431 0 
L 469 0 
L 469 531 
Q 828 903 1448 1529 
Q 2069 2156 2228 2338 
Q 2531 2678 2651 2914 
Q 2772 3150 2772 3378 
Q 2772 3750 2511 3984 
Q 2250 4219 1831 4219 
Q 1534 4219 1204 4116 
Q 875 4013 500 3803 
L 500 4441 
Q 881 4594 1212 4672 
Q 1544 4750 1819 4750 
Q 2544 4750 2975 4387 
Q 3406 4025 3406 3419 
Q 3406 3131 3298 2873 
Q 3191 2616 2906 2266 
Q 2828 2175 2409 1742 
Q 1991 1309 1228 531 
z
" transform="scale(0.015625)"/>
       </defs>
       <use xlink:href="#DejaVuSans-32"/>
       <use xlink:href="#DejaVuSans-30" x="63.623047"/>
      </g>
     </g>
    </g>
    <g id="xtick_4">
     <g id="line2d_4">
      <g>
       <use xlink:href="#mb8f008506a" x="193.558841" y="228.959219" style="stroke: #000000; stroke-width: 0.8"/>
      </g>
     </g>
     <g id="text_4">
      <!-- 30 -->
      <g transform="translate(187.196341 243.557656) scale(0.1 -0.1)">
       <defs>
        <path id="DejaVuSans-33" d="M 2597 2516 
Q 3050 2419 3304 2112 
Q 3559 1806 3559 1356 
Q 3559 666 3084 287 
Q 2609 -91 1734 -91 
Q 1441 -91 1130 -33 
Q 819 25 488 141 
L 488 750 
Q 750 597 1062 519 
Q 1375 441 1716 441 
Q 2309 441 2620 675 
Q 2931 909 2931 1356 
Q 2931 1769 2642 2001 
Q 2353 2234 1838 2234 
L 1294 2234 
L 1294 2753 
L 1863 2753 
Q 2328 2753 2575 2939 
Q 2822 3125 2822 3475 
Q 2822 3834 2567 4026 
Q 2313 4219 1838 4219 
Q 1578 4219 1281 4162 
Q 984 4106 628 3988 
L 628 4550 
Q 988 4650 1302 4700 
Q 1616 4750 1894 4750 
Q 2613 4750 3031 4423 
Q 3450 4097 3450 3541 
Q 3450 3153 3228 2886 
Q 3006 2619 2597 2516 
z
" transform="scale(0.015625)"/>
       </defs>
       <use xlink:href="#DejaVuSans-33"/>
       <use xlink:href="#DejaVuSans-30" x="63.623047"/>
      </g>
     </g>
    </g>
    <g id="xtick_5">
     <g id="line2d_5">
      <g>
       <use xlink:href="#mb8f008506a" x="245.246788" y="228.959219" style="stroke: #000000; stroke-width: 0.8"/>
      </g>
     </g>
     <g id="text_5">
      <!-- 40 -->
      <g transform="translate(238.884288 243.557656) scale(0.1 -0.1)">
       <defs>
        <path id="DejaVuSans-34" d="M 2419 4116 
L 825 1625 
L 2419 1625 
L 2419 4116 
z
M 2253 4666 
L 3047 4666 
L 3047 1625 
L 3713 1625 
L 3713 1100 
L 3047 1100 
L 3047 0 
L 2419 0 
L 2419 1100 
L 313 1100 
L 313 1709 
L 2253 4666 
z
" transform="scale(0.015625)"/>
       </defs>
       <use xlink:href="#DejaVuSans-34"/>
       <use xlink:href="#DejaVuSans-30" x="63.623047"/>
      </g>
     </g>
    </g>
    <g id="xtick_6">
     <g id="line2d_6">
      <g>
       <use xlink:href="#mb8f008506a" x="296.934735" y="228.959219" style="stroke: #000000; stroke-width: 0.8"/>
      </g>
     </g>
     <g id="text_6">
      <!-- 50 -->
      <g transform="translate(290.572235 243.557656) scale(0.1 -0.1)">
       <defs>
        <path id="DejaVuSans-35" d="M 691 4666 
L 3169 4666 
L 3169 4134 
L 1269 4134 
L 1269 2991 
Q 1406 3038 1543 3061 
Q 1681 3084 1819 3084 
Q 2600 3084 3056 2656 
Q 3513 2228 3513 1497 
Q 3513 744 3044 326 
Q 2575 -91 1722 -91 
Q 1428 -91 1123 -41 
Q 819 9 494 109 
L 494 744 
Q 775 591 1075 516 
Q 1375 441 1709 441 
Q 2250 441 2565 725 
Q 2881 1009 2881 1497 
Q 2881 1984 2565 2268 
Q 2250 2553 1709 2553 
Q 1456 2553 1204 2497 
Q 953 2441 691 2322 
L 691 4666 
z
" transform="scale(0.015625)"/>
       </defs>
       <use xlink:href="#DejaVuSans-35"/>
       <use xlink:href="#DejaVuSans-30" x="63.623047"/>
      </g>
     </g>
    </g>
    <g id="text_7">
     <!-- Total polysome number $N_T$ -->
     <g transform="translate(83.134265 259.517344) scale(0.13 -0.13)">
      <defs>
       <path id="DejaVuSans-54" d="M -19 4666 
L 3928 4666 
L 3928 4134 
L 2272 4134 
L 2272 0 
L 1638 0 
L 1638 4134 
L -19 4134 
L -19 4666 
z
" transform="scale(0.015625)"/>
       <path id="DejaVuSans-6f" d="M 1959 3097 
Q 1497 3097 1228 2736 
Q 959 2375 959 1747 
Q 959 1119 1226 758 
Q 1494 397 1959 397 
Q 2419 397 2687 759 
Q 2956 1122 2956 1747 
Q 2956 2369 2687 2733 
Q 2419 3097 1959 3097 
z
M 1959 3584 
Q 2709 3584 3137 3096 
Q 3566 2609 3566 1747 
Q 3566 888 3137 398 
Q 2709 -91 1959 -91 
Q 1206 -91 779 398 
Q 353 888 353 1747 
Q 353 2609 779 3096 
Q 1206 3584 1959 3584 
z
" transform="scale(0.015625)"/>
       <path id="DejaVuSans-74" d="M 1172 4494 
L 1172 3500 
L 2356 3500 
L 2356 3053 
L 1172 3053 
L 1172 1153 
Q 1172 725 1289 603 
Q 1406 481 1766 481 
L 2356 481 
L 2356 0 
L 1766 0 
Q 1100 0 847 248 
Q 594 497 594 1153 
L 594 3053 
L 172 3053 
L 172 3500 
L 594 3500 
L 594 4494 
L 1172 4494 
z
" transform="scale(0.015625)"/>
       <path id="DejaVuSans-61" d="M 2194 1759 
Q 1497 1759 1228 1600 
Q 959 1441 959 1056 
Q 959 750 1161 570 
Q 1363 391 1709 391 
Q 2188 391 2477 730 
Q 2766 1069 2766 1631 
L 2766 1759 
L 2194 1759 
z
M 3341 1997 
L 3341 0 
L 2766 0 
L 2766 531 
Q 2569 213 2275 61 
Q 1981 -91 1556 -91 
Q 1019 -91 701 211 
Q 384 513 384 1019 
Q 384 1609 779 1909 
Q 1175 2209 1959 2209 
L 2766 2209 
L 2766 2266 
Q 2766 2663 2505 2880 
Q 2244 3097 1772 3097 
Q 1472 3097 1187 3025 
Q 903 2953 641 2809 
L 641 3341 
Q 956 3463 1253 3523 
Q 1550 3584 1831 3584 
Q 2591 3584 2966 3190 
Q 3341 2797 3341 1997 
z
" transform="scale(0.015625)"/>
       <path id="DejaVuSans-6c" d="M 603 4863 
L 1178 4863 
L 1178 0 
L 603 0 
L 603 4863 
z
" transform="scale(0.015625)"/>
       <path id="DejaVuSans-20" transform="scale(0.015625)"/>
       <path id="DejaVuSans-70" d="M 1159 525 
L 1159 -1331 
L 581 -1331 
L 581 3500 
L 1159 3500 
L 1159 2969 
Q 1341 3281 1617 3432 
Q 1894 3584 2278 3584 
Q 2916 3584 3314 3078 
Q 3713 2572 3713 1747 
Q 3713 922 3314 415 
Q 2916 -91 2278 -91 
Q 1894 -91 1617 61 
Q 1341 213 1159 525 
z
M 3116 1747 
Q 3116 2381 2855 2742 
Q 2594 3103 2138 3103 
Q 1681 3103 1420 2742 
Q 1159 2381 1159 1747 
Q 1159 1113 1420 752 
Q 1681 391 2138 391 
Q 2594 391 2855 752 
Q 3116 1113 3116 1747 
z
" transform="scale(0.015625)"/>
       <path id="DejaVuSans-79" d="M 2059 -325 
Q 1816 -950 1584 -1140 
Q 1353 -1331 966 -1331 
L 506 -1331 
L 506 -850 
L 844 -850 
Q 1081 -850 1212 -737 
Q 1344 -625 1503 -206 
L 1606 56 
L 191 3500 
L 800 3500 
L 1894 763 
L 2988 3500 
L 3597 3500 
L 2059 -325 
z
" transform="scale(0.015625)"/>
       <path id="DejaVuSans-73" d="M 2834 3397 
L 2834 2853 
Q 2591 2978 2328 3040 
Q 2066 3103 1784 3103 
Q 1356 3103 1142 2972 
Q 928 2841 928 2578 
Q 928 2378 1081 2264 
Q 1234 2150 1697 2047 
L 1894 2003 
Q 2506 1872 2764 1633 
Q 3022 1394 3022 966 
Q 3022 478 2636 193 
Q 2250 -91 1575 -91 
Q 1294 -91 989 -36 
Q 684 19 347 128 
L 347 722 
Q 666 556 975 473 
Q 1284 391 1588 391 
Q 1994 391 2212 530 
Q 2431 669 2431 922 
Q 2431 1156 2273 1281 
Q 2116 1406 1581 1522 
L 1381 1569 
Q 847 1681 609 1914 
Q 372 2147 372 2553 
Q 372 3047 722 3315 
Q 1072 3584 1716 3584 
Q 2034 3584 2315 3537 
Q 2597 3491 2834 3397 
z
" transform="scale(0.015625)"/>
       <path id="DejaVuSans-6d" d="M 3328 2828 
Q 3544 3216 3844 3400 
Q 4144 3584 4550 3584 
Q 5097 3584 5394 3201 
Q 5691 2819 5691 2113 
L 5691 0 
L 5113 0 
L 5113 2094 
Q 5113 2597 4934 2840 
Q 4756 3084 4391 3084 
Q 3944 3084 3684 2787 
Q 3425 2491 3425 1978 
L 3425 0 
L 2847 0 
L 2847 2094 
Q 2847 2600 2669 2842 
Q 2491 3084 2119 3084 
Q 1678 3084 1418 2786 
Q 1159 2488 1159 1978 
L 1159 0 
L 581 0 
L 581 3500 
L 1159 3500 
L 1159 2956 
Q 1356 3278 1631 3431 
Q 1906 3584 2284 3584 
Q 2666 3584 2933 3390 
Q 3200 3197 3328 2828 
z
" transform="scale(0.015625)"/>
       <path id="DejaVuSans-65" d="M 3597 1894 
L 3597 1613 
L 953 1613 
Q 991 1019 1311 708 
Q 1631 397 2203 397 
Q 2534 397 2845 478 
Q 3156 559 3463 722 
L 3463 178 
Q 3153 47 2828 -22 
Q 2503 -91 2169 -91 
Q 1331 -91 842 396 
Q 353 884 353 1716 
Q 353 2575 817 3079 
Q 1281 3584 2069 3584 
Q 2775 3584 3186 3129 
Q 3597 2675 3597 1894 
z
M 3022 2063 
Q 3016 2534 2758 2815 
Q 2500 3097 2075 3097 
Q 1594 3097 1305 2825 
Q 1016 2553 972 2059 
L 3022 2063 
z
" transform="scale(0.015625)"/>
       <path id="DejaVuSans-6e" d="M 3513 2113 
L 3513 0 
L 2938 0 
L 2938 2094 
Q 2938 2591 2744 2837 
Q 2550 3084 2163 3084 
Q 1697 3084 1428 2787 
Q 1159 2491 1159 1978 
L 1159 0 
L 581 0 
L 581 3500 
L 1159 3500 
L 1159 2956 
Q 1366 3272 1645 3428 
Q 1925 3584 2291 3584 
Q 2894 3584 3203 3211 
Q 3513 2838 3513 2113 
z
" transform="scale(0.015625)"/>
       <path id="DejaVuSans-75" d="M 544 1381 
L 544 3500 
L 1119 3500 
L 1119 1403 
Q 1119 906 1312 657 
Q 1506 409 1894 409 
Q 2359 409 2629 706 
Q 2900 1003 2900 1516 
L 2900 3500 
L 3475 3500 
L 3475 0 
L 2900 0 
L 2900 538 
Q 2691 219 2414 64 
Q 2138 -91 1772 -91 
Q 1169 -91 856 284 
Q 544 659 544 1381 
z
M 1991 3584 
L 1991 3584 
z
" transform="scale(0.015625)"/>
       <path id="DejaVuSans-62" d="M 3116 1747 
Q 3116 2381 2855 2742 
Q 2594 3103 2138 3103 
Q 1681 3103 1420 2742 
Q 1159 2381 1159 1747 
Q 1159 1113 1420 752 
Q 1681 391 2138 391 
Q 2594 391 2855 752 
Q 3116 1113 3116 1747 
z
M 1159 2969 
Q 1341 3281 1617 3432 
Q 1894 3584 2278 3584 
Q 2916 3584 3314 3078 
Q 3713 2572 3713 1747 
Q 3713 922 3314 415 
Q 2916 -91 2278 -91 
Q 1894 -91 1617 61 
Q 1341 213 1159 525 
L 1159 0 
L 581 0 
L 581 4863 
L 1159 4863 
L 1159 2969 
z
" transform="scale(0.015625)"/>
       <path id="DejaVuSans-72" d="M 2631 2963 
Q 2534 3019 2420 3045 
Q 2306 3072 2169 3072 
Q 1681 3072 1420 2755 
Q 1159 2438 1159 1844 
L 1159 0 
L 581 0 
L 581 3500 
L 1159 3500 
L 1159 2956 
Q 1341 3275 1631 3429 
Q 1922 3584 2338 3584 
Q 2397 3584 2469 3576 
Q 2541 3569 2628 3553 
L 2631 2963 
z
" transform="scale(0.015625)"/>
       <path id="DejaVuSans-Oblique-4e" d="M 1081 4666 
L 1931 4666 
L 3219 666 
L 4000 4666 
L 4616 4666 
L 3706 0 
L 2853 0 
L 1569 4025 
L 788 0 
L 172 0 
L 1081 4666 
z
" transform="scale(0.015625)"/>
       <path id="DejaVuSans-Oblique-54" d="M 378 4666 
L 4325 4666 
L 4225 4134 
L 2559 4134 
L 1759 0 
L 1125 0 
L 1925 4134 
L 275 4134 
L 378 4666 
z
" transform="scale(0.015625)"/>
      </defs>
      <use xlink:href="#DejaVuSans-54" transform="translate(0 0.015625)"/>
      <use xlink:href="#DejaVuSans-6f" transform="translate(61.083984 0.015625)"/>
      <use xlink:href="#DejaVuSans-74" transform="translate(122.265625 0.015625)"/>
      <use xlink:href="#DejaVuSans-61" transform="translate(161.474609 0.015625)"/>
      <use xlink:href="#DejaVuSans-6c" transform="translate(222.753906 0.015625)"/>
      <use xlink:href="#DejaVuSans-20" transform="translate(250.537109 0.015625)"/>
      <use xlink:href="#DejaVuSans-70" transform="translate(282.324219 0.015625)"/>
      <use xlink:href="#DejaVuSans-6f" transform="translate(345.800781 0.015625)"/>
      <use xlink:href="#DejaVuSans-6c" transform="translate(406.982422 0.015625)"/>
      <use xlink:href="#DejaVuSans-79" transform="translate(434.765625 0.015625)"/>
      <use xlink:href="#DejaVuSans-73" transform="translate(493.945312 0.015625)"/>
      <use xlink:href="#DejaVuSans-6f" transform="translate(546.044922 0.015625)"/>
      <use xlink:href="#DejaVuSans-6d" transform="translate(607.226562 0.015625)"/>
      <use xlink:href="#DejaVuSans-65" transform="translate(704.638672 0.015625)"/>
      <use xlink:href="#DejaVuSans-20" transform="translate(766.162109 0.015625)"/>
      <use xlink:href="#DejaVuSans-6e" transform="translate(797.949219 0.015625)"/>
      <use xlink:href="#DejaVuSans-75" transform="translate(861.328125 0.015625)"/>
      <use xlink:href="#DejaVuSans-6d" transform="translate(924.707031 0.015625)"/>
      <use xlink:href="#DejaVuSans-62" transform="translate(1022.119141 0.015625)"/>
      <use xlink:href="#DejaVuSans-65" transform="translate(1085.595703 0.015625)"/>
      <use xlink:href="#DejaVuSans-72" transform="translate(1147.119141 0.015625)"/>
      <use xlink:href="#DejaVuSans-20" transform="translate(1188.232422 0.015625)"/>
      <use xlink:href="#DejaVuSans-Oblique-4e" transform="translate(1220.019531 0.015625)"/>
      <use xlink:href="#DejaVuSans-Oblique-54" transform="translate(1294.824219 -16.390625) scale(0.7)"/>
     </g>
    </g>
   </g>
   <g id="matplotlib.axis_2">
    <g id="ytick_1">
     <g id="line2d_7">
      <defs>
       <path id="mb751a1a7c7" d="M 0 0 
L -3.5 0 
" style="stroke: #000000; stroke-width: 0.8"/>
      </defs>
      <g>
       <use xlink:href="#mb751a1a7c7" x="38.495" y="228.959219" style="stroke: #000000; stroke-width: 0.8"/>
      </g>
     </g>
     <g id="text_8">
      <!-- 0 -->
      <g transform="translate(25.1325 232.758437) scale(0.1 -0.1)">
       <use xlink:href="#DejaVuSans-30"/>
      </g>
     </g>
    </g>
    <g id="ytick_2">
     <g id="line2d_8">
      <g>
       <use xlink:href="#mb751a1a7c7" x="38.495" y="184.359219" style="stroke: #000000; stroke-width: 0.8"/>
      </g>
     </g>
     <g id="text_9">
      <!-- 10 -->
      <g transform="translate(18.77 188.158437) scale(0.1 -0.1)">
       <use xlink:href="#DejaVuSans-31"/>
       <use xlink:href="#DejaVuSans-30" x="63.623047"/>
      </g>
     </g>
    </g>
    <g id="ytick_3">
     <g id="line2d_9">
      <g>
       <use xlink:href="#mb751a1a7c7" x="38.495" y="139.759219" style="stroke: #000000; stroke-width: 0.8"/>
      </g>
     </g>
     <g id="text_10">
      <!-- 20 -->
      <g transform="translate(18.77 143.558437) scale(0.1 -0.1)">
       <use xlink:href="#DejaVuSans-32"/>
       <use xlink:href="#DejaVuSans-30" x="63.623047"/>
      </g>
     </g>
    </g>
    <g id="ytick_4">
     <g id="line2d_10">
      <g>
       <use xlink:href="#mb751a1a7c7" x="38.495" y="95.159219" style="stroke: #000000; stroke-width: 0.8"/>
      </g>
     </g>
     <g id="text_11">
      <!-- 30 -->
      <g transform="translate(18.77 98.958437) scale(0.1 -0.1)">
       <use xlink:href="#DejaVuSans-33"/>
       <use xlink:href="#DejaVuSans-30" x="63.623047"/>
      </g>
     </g>
    </g>
    <g id="ytick_5">
     <g id="line2d_11">
      <g>
       <use xlink:href="#mb751a1a7c7" x="38.495" y="50.559219" style="stroke: #000000; stroke-width: 0.8"/>
      </g>
     </g>
     <g id="text_12">
      <!-- 40 -->
      <g transform="translate(18.77 54.358437) scale(0.1 -0.1)">
       <use xlink:href="#DejaVuSans-34"/>
       <use xlink:href="#DejaVuSans-30" x="63.623047"/>
      </g>
     </g>
    </g>
    <g id="ytick_6">
     <g id="line2d_12">
      <g>
       <use xlink:href="#mb751a1a7c7" x="38.495" y="5.959219" style="stroke: #000000; stroke-width: 0.8"/>
      </g>
     </g>
     <g id="text_13">
      <!-- 50 -->
      <g transform="translate(18.77 9.758437) scale(0.1 -0.1)">
       <use xlink:href="#DejaVuSans-35"/>
       <use xlink:href="#DejaVuSans-30" x="63.623047"/>
      </g>
     </g>
    </g>
    <g id="text_14">
     <!-- #Surface-bound polysomes $N_B$ -->
     <g transform="translate(12.04 217.624219) rotate(-90) scale(0.13 -0.13)">
      <defs>
       <path id="DejaVuSans-23" d="M 3272 2816 
L 2363 2816 
L 2100 1772 
L 3016 1772 
L 3272 2816 
z
M 2803 4594 
L 2478 3297 
L 3391 3297 
L 3719 4594 
L 4219 4594 
L 3897 3297 
L 4872 3297 
L 4872 2816 
L 3775 2816 
L 3519 1772 
L 4513 1772 
L 4513 1294 
L 3397 1294 
L 3072 0 
L 2572 0 
L 2894 1294 
L 1978 1294 
L 1656 0 
L 1153 0 
L 1478 1294 
L 494 1294 
L 494 1772 
L 1594 1772 
L 1856 2816 
L 850 2816 
L 850 3297 
L 1978 3297 
L 2297 4594 
L 2803 4594 
z
" transform="scale(0.015625)"/>
       <path id="DejaVuSans-53" d="M 3425 4513 
L 3425 3897 
Q 3066 4069 2747 4153 
Q 2428 4238 2131 4238 
Q 1616 4238 1336 4038 
Q 1056 3838 1056 3469 
Q 1056 3159 1242 3001 
Q 1428 2844 1947 2747 
L 2328 2669 
Q 3034 2534 3370 2195 
Q 3706 1856 3706 1288 
Q 3706 609 3251 259 
Q 2797 -91 1919 -91 
Q 1588 -91 1214 -16 
Q 841 59 441 206 
L 441 856 
Q 825 641 1194 531 
Q 1563 422 1919 422 
Q 2459 422 2753 634 
Q 3047 847 3047 1241 
Q 3047 1584 2836 1778 
Q 2625 1972 2144 2069 
L 1759 2144 
Q 1053 2284 737 2584 
Q 422 2884 422 3419 
Q 422 4038 858 4394 
Q 1294 4750 2059 4750 
Q 2388 4750 2728 4690 
Q 3069 4631 3425 4513 
z
" transform="scale(0.015625)"/>
       <path id="DejaVuSans-66" d="M 2375 4863 
L 2375 4384 
L 1825 4384 
Q 1516 4384 1395 4259 
Q 1275 4134 1275 3809 
L 1275 3500 
L 2222 3500 
L 2222 3053 
L 1275 3053 
L 1275 0 
L 697 0 
L 697 3053 
L 147 3053 
L 147 3500 
L 697 3500 
L 697 3744 
Q 697 4328 969 4595 
Q 1241 4863 1831 4863 
L 2375 4863 
z
" transform="scale(0.015625)"/>
       <path id="DejaVuSans-63" d="M 3122 3366 
L 3122 2828 
Q 2878 2963 2633 3030 
Q 2388 3097 2138 3097 
Q 1578 3097 1268 2742 
Q 959 2388 959 1747 
Q 959 1106 1268 751 
Q 1578 397 2138 397 
Q 2388 397 2633 464 
Q 2878 531 3122 666 
L 3122 134 
Q 2881 22 2623 -34 
Q 2366 -91 2075 -91 
Q 1284 -91 818 406 
Q 353 903 353 1747 
Q 353 2603 823 3093 
Q 1294 3584 2113 3584 
Q 2378 3584 2631 3529 
Q 2884 3475 3122 3366 
z
" transform="scale(0.015625)"/>
       <path id="DejaVuSans-2d" d="M 313 2009 
L 1997 2009 
L 1997 1497 
L 313 1497 
L 313 2009 
z
" transform="scale(0.015625)"/>
       <path id="DejaVuSans-64" d="M 2906 2969 
L 2906 4863 
L 3481 4863 
L 3481 0 
L 2906 0 
L 2906 525 
Q 2725 213 2448 61 
Q 2172 -91 1784 -91 
Q 1150 -91 751 415 
Q 353 922 353 1747 
Q 353 2572 751 3078 
Q 1150 3584 1784 3584 
Q 2172 3584 2448 3432 
Q 2725 3281 2906 2969 
z
M 947 1747 
Q 947 1113 1208 752 
Q 1469 391 1925 391 
Q 2381 391 2643 752 
Q 2906 1113 2906 1747 
Q 2906 2381 2643 2742 
Q 2381 3103 1925 3103 
Q 1469 3103 1208 2742 
Q 947 2381 947 1747 
z
" transform="scale(0.015625)"/>
       <path id="DejaVuSans-Oblique-42" d="M 1081 4666 
L 2694 4666 
Q 3350 4666 3675 4422 
Q 4000 4178 4000 3688 
Q 4000 3238 3720 2911 
Q 3441 2584 2988 2516 
Q 3375 2428 3569 2181 
Q 3763 1934 3763 1522 
Q 3763 819 3242 409 
Q 2722 0 1819 0 
L 172 0 
L 1081 4666 
z
M 1234 2228 
L 903 519 
L 1919 519 
Q 2491 519 2800 781 
Q 3109 1044 3109 1522 
Q 3109 1891 2904 2059 
Q 2700 2228 2247 2228 
L 1234 2228 
z
M 1606 4147 
L 1331 2741 
L 2272 2741 
Q 2775 2741 3058 2959 
Q 3341 3178 3341 3566 
Q 3341 3869 3150 4008 
Q 2959 4147 2541 4147 
L 1606 4147 
z
" transform="scale(0.015625)"/>
      </defs>
      <use xlink:href="#DejaVuSans-23" transform="translate(0 0.015625)"/>
      <use xlink:href="#DejaVuSans-53" transform="translate(83.789062 0.015625)"/>
      <use xlink:href="#DejaVuSans-75" transform="translate(147.265625 0.015625)"/>
      <use xlink:href="#DejaVuSans-72" transform="translate(210.644531 0.015625)"/>
      <use xlink:href="#DejaVuSans-66" transform="translate(251.757812 0.015625)"/>
      <use xlink:href="#DejaVuSans-61" transform="translate(286.962891 0.015625)"/>
      <use xlink:href="#DejaVuSans-63" transform="translate(348.242188 0.015625)"/>
      <use xlink:href="#DejaVuSans-65" transform="translate(403.222656 0.015625)"/>
      <use xlink:href="#DejaVuSans-2d" transform="translate(464.746094 0.015625)"/>
      <use xlink:href="#DejaVuSans-62" transform="translate(500.830078 0.015625)"/>
      <use xlink:href="#DejaVuSans-6f" transform="translate(564.306641 0.015625)"/>
      <use xlink:href="#DejaVuSans-75" transform="translate(625.488281 0.015625)"/>
      <use xlink:href="#DejaVuSans-6e" transform="translate(688.867188 0.015625)"/>
      <use xlink:href="#DejaVuSans-64" transform="translate(752.246094 0.015625)"/>
      <use xlink:href="#DejaVuSans-20" transform="translate(815.722656 0.015625)"/>
      <use xlink:href="#DejaVuSans-70" transform="translate(847.509766 0.015625)"/>
      <use xlink:href="#DejaVuSans-6f" transform="translate(910.986328 0.015625)"/>
      <use xlink:href="#DejaVuSans-6c" transform="translate(972.167969 0.015625)"/>
      <use xlink:href="#DejaVuSans-79" transform="translate(999.951172 0.015625)"/>
      <use xlink:href="#DejaVuSans-73" transform="translate(1059.130859 0.015625)"/>
      <use xlink:href="#DejaVuSans-6f" transform="translate(1111.230469 0.015625)"/>
      <use xlink:href="#DejaVuSans-6d" transform="translate(1172.412109 0.015625)"/>
      <use xlink:href="#DejaVuSans-65" transform="translate(1269.824219 0.015625)"/>
      <use xlink:href="#DejaVuSans-73" transform="translate(1331.347656 0.015625)"/>
      <use xlink:href="#DejaVuSans-20" transform="translate(1383.447266 0.015625)"/>
      <use xlink:href="#DejaVuSans-Oblique-4e" transform="translate(1415.234375 0.015625)"/>
      <use xlink:href="#DejaVuSans-Oblique-42" transform="translate(1490.039062 -16.390625) scale(0.7)"/>
     </g>
    </g>
   </g>
   <g id="LineCollection_1">
    <path d="M 38.495 228.959219 
L 38.495 228.959219 
" clip-path="url(#p74c14d9cd4)" style="fill: none; stroke: #2ca02c; stroke-opacity: 0.7; stroke-width: 1.5"/>
   </g>
   <g id="line2d_13">
    <defs>
     <path id="mebb0a7d8fa" d="M 3 0 
L -3 -0 
" style="stroke: #2ca02c; stroke-opacity: 0.7"/>
    </defs>
    <g clip-path="url(#p74c14d9cd4)">
     <use xlink:href="#mebb0a7d8fa" x="38.495" y="228.959219" style="fill: #2ca02c; fill-opacity: 0.7; stroke: #2ca02c; stroke-opacity: 0.7"/>
    </g>
   </g>
   <g id="line2d_14">
    <g clip-path="url(#p74c14d9cd4)">
     <use xlink:href="#mebb0a7d8fa" x="38.495" y="228.959219" style="fill: #2ca02c; fill-opacity: 0.7; stroke: #2ca02c; stroke-opacity: 0.7"/>
    </g>
   </g>
   <g id="line2d_15">
    <path d="M 38.495 228.959219 
L 184.208257 104.379647 
L 304.207411 2.067922 
L 306.457235 0.152891 
L 306.457235 0.152891 
" clip-path="url(#p74c14d9cd4)" style="fill: none; stroke: #2ca02c; stroke-width: 1.5; stroke-linecap: square"/>
   </g>
   <g id="LineCollection_2">
    <path d="M 38.495 228.959219 
L 38.495 228.959219 
" clip-path="url(#p74c14d9cd4)" style="fill: none; stroke: #bcbd22; stroke-opacity: 0.7; stroke-width: 1.5"/>
   </g>
   <g id="line2d_16">
    <defs>
     <path id="m61a1384427" d="M 3 0 
L -3 -0 
" style="stroke: #bcbd22; stroke-opacity: 0.7"/>
    </defs>
    <g clip-path="url(#p74c14d9cd4)">
     <use xlink:href="#m61a1384427" x="38.495" y="228.959219" style="fill: #bcbd22; fill-opacity: 0.7; stroke: #bcbd22; stroke-opacity: 0.7"/>
    </g>
   </g>
   <g id="line2d_17">
    <g clip-path="url(#p74c14d9cd4)">
     <use xlink:href="#m61a1384427" x="38.495" y="228.959219" style="fill: #bcbd22; fill-opacity: 0.7; stroke: #bcbd22; stroke-opacity: 0.7"/>
    </g>
   </g>
   <g id="line2d_18">
    <path d="M 38.495 228.959219 
L 128.494365 152.449381 
L 202.779555 89.578123 
L 265.636254 36.665328 
L 306.457235 2.495476 
L 306.457235 2.495476 
" clip-path="url(#p74c14d9cd4)" style="fill: none; stroke: #bcbd22; stroke-width: 1.5; stroke-linecap: square"/>
   </g>
   <g id="LineCollection_3">
    <path d="M 38.495 228.959219 
L 38.495 228.959219 
" clip-path="url(#p74c14d9cd4)" style="fill: none; stroke: #9467bd; stroke-opacity: 0.7; stroke-width: 1.5"/>
   </g>
   <g id="line2d_19">
    <defs>
     <path id="m75425847a0" d="M 3 0 
L -3 -0 
" style="stroke: #9467bd; stroke-opacity: 0.7"/>
    </defs>
    <g clip-path="url(#p74c14d9cd4)">
     <use xlink:href="#m75425847a0" x="38.495" y="228.959219" style="fill: #9467bd; fill-opacity: 0.7; stroke: #9467bd; stroke-opacity: 0.7"/>
    </g>
   </g>
   <g id="line2d_20">
    <g clip-path="url(#p74c14d9cd4)">
     <use xlink:href="#m75425847a0" x="38.495" y="228.959219" style="fill: #9467bd; fill-opacity: 0.7; stroke: #9467bd; stroke-opacity: 0.7"/>
    </g>
   </g>
   <g id="line2d_21">
    <path d="M 38.495 228.959219 
L 84.208963 190.659073 
L 122.78012 158.62534 
L 154.208469 132.795754 
L 181.351135 110.760755 
L 205.636678 91.334666 
L 225.636537 75.607649 
L 244.207834 61.28749 
L 259.922009 49.439132 
L 274.207622 38.931992 
L 287.064674 29.735179 
L 298.493165 21.804485 
L 306.457235 16.434321 
L 306.457235 16.434321 
" clip-path="url(#p74c14d9cd4)" style="fill: none; stroke: #9467bd; stroke-width: 1.5; stroke-linecap: square"/>
   </g>
   <g id="LineCollection_4">
    <path d="M 38.495 228.959219 
L 38.495 228.959219 
" clip-path="url(#p74c14d9cd4)" style="fill: none; stroke: #8c564b; stroke-opacity: 0.7; stroke-width: 1.5"/>
   </g>
   <g id="line2d_22">
    <defs>
     <path id="mfb77e1186e" d="M 3 0 
L -3 -0 
" style="stroke: #8c564b; stroke-opacity: 0.7"/>
    </defs>
    <g clip-path="url(#p74c14d9cd4)">
     <use xlink:href="#mfb77e1186e" x="38.495" y="228.959219" style="fill: #8c564b; fill-opacity: 0.7; stroke: #8c564b; stroke-opacity: 0.7"/>
    </g>
   </g>
   <g id="line2d_23">
    <g clip-path="url(#p74c14d9cd4)">
     <use xlink:href="#mfb77e1186e" x="38.495" y="228.959219" style="fill: #8c564b; fill-opacity: 0.7; stroke: #8c564b; stroke-opacity: 0.7"/>
    </g>
   </g>
   <g id="line2d_24">
    <path d="M 38.495 228.959219 
L 64.209104 207.961167 
L 85.637524 190.751693 
L 102.780261 177.248686 
L 118.494435 165.150737 
L 131.351488 155.512491 
L 142.779978 147.194817 
L 152.779908 140.15375 
L 162.779837 133.37893 
L 171.351205 127.821017 
L 179.922573 122.528242 
L 187.06538 118.344673 
L 194.208187 114.387571 
L 201.350994 110.673437 
L 208.4938 107.215195 
L 215.636607 104.020976 
L 222.779414 101.093276 
L 229.922221 98.428687 
L 237.065027 96.018267 
L 244.207834 93.848448 
L 251.350641 91.902295 
L 258.493448 90.160856 
L 267.064816 88.313585 
L 275.636184 86.699207 
L 285.636113 85.068453 
L 295.636043 83.667729 
L 306.457235 82.36762 
L 306.457235 82.36762 
" clip-path="url(#p74c14d9cd4)" style="fill: none; stroke: #8c564b; stroke-width: 1.5; stroke-linecap: square"/>
   </g>
   <g id="LineCollection_5">
    <path d="M 38.495 228.959219 
L 38.495 228.959219 
" clip-path="url(#p74c14d9cd4)" style="fill: none; stroke: #7f7f7f; stroke-opacity: 0.7; stroke-width: 1.5"/>
   </g>
   <g id="line2d_25">
    <defs>
     <path id="m83fb2cf5b7" d="M 3 0 
L -3 -0 
" style="stroke: #7f7f7f; stroke-opacity: 0.7"/>
    </defs>
    <g clip-path="url(#p74c14d9cd4)">
     <use xlink:href="#m83fb2cf5b7" x="38.495" y="228.959219" style="fill: #7f7f7f; fill-opacity: 0.7; stroke: #7f7f7f; stroke-opacity: 0.7"/>
    </g>
   </g>
   <g id="line2d_26">
    <g clip-path="url(#p74c14d9cd4)">
     <use xlink:href="#m83fb2cf5b7" x="38.495" y="228.959219" style="fill: #7f7f7f; fill-opacity: 0.7; stroke: #7f7f7f; stroke-opacity: 0.7"/>
    </g>
   </g>
   <g id="line2d_27">
    <path d="M 38.495 228.959219 
L 61.351982 210.427044 
L 79.923279 195.644701 
L 95.637454 183.40415 
L 109.923067 172.562742 
L 121.351558 164.14473 
L 132.780049 156.014437 
L 142.779978 149.191104 
L 151.351346 143.601621 
L 159.922715 138.290926 
L 167.065521 134.106119 
L 174.208328 130.162894 
L 181.351135 126.479733 
L 188.493942 123.070663 
L 195.636748 119.943739 
L 202.779555 117.100102 
L 209.922362 114.533831 
L 217.065168 112.232659 
L 224.207975 110.179341 
L 231.350782 108.353347 
L 238.493589 106.732555 
L 247.064957 105.027147 
L 255.636325 103.548502 
L 265.636254 102.06582 
L 275.636184 100.800776 
L 287.064674 99.572756 
L 299.921727 98.414456 
L 306.457235 97.900504 
L 306.457235 97.900504 
" clip-path="url(#p74c14d9cd4)" style="fill: none; stroke: #7f7f7f; stroke-width: 1.5; stroke-linecap: square"/>
   </g>
   <g id="LineCollection_6">
    <path d="M 38.495 228.959219 
L 38.495 228.959219 
" clip-path="url(#p74c14d9cd4)" style="fill: none; stroke: #000000; stroke-opacity: 0.7; stroke-width: 1.5"/>
   </g>
   <g id="line2d_28">
    <defs>
     <path id="mc28b044e3a" d="M 3 0 
L -3 -0 
" style="stroke: #000000; stroke-opacity: 0.7"/>
    </defs>
    <g clip-path="url(#p74c14d9cd4)">
     <use xlink:href="#mc28b044e3a" x="38.495" y="228.959219" style="fill-opacity: 0.7; stroke: #000000; stroke-opacity: 0.7"/>
    </g>
   </g>
   <g id="line2d_29">
    <g clip-path="url(#p74c14d9cd4)">
     <use xlink:href="#mc28b044e3a" x="38.495" y="228.959219" style="fill-opacity: 0.7; stroke: #000000; stroke-opacity: 0.7"/>
    </g>
   </g>
   <g id="line2d_30">
    <path d="M 38.495 228.959219 
L 58.494859 212.898148 
L 74.209034 200.538865 
L 88.494647 189.576942 
L 101.351699 180.008845 
L 111.351629 172.818568 
L 121.351558 165.904014 
L 129.922926 160.242601 
L 138.494294 154.871163 
L 145.637101 150.648672 
L 152.779908 146.683426 
L 159.922715 142.997162 
L 167.065521 139.606169 
L 172.779767 137.112185 
L 178.494012 134.813526 
L 185.636819 132.20984 
L 192.779626 129.893011 
L 199.922432 127.843388 
L 207.065239 126.03718 
L 214.208046 124.448704 
L 222.779414 122.793836 
L 231.350782 121.373804 
L 241.350711 119.96448 
L 251.350641 118.773989 
L 262.779132 117.629073 
L 275.636184 116.55889 
L 291.350359 115.491848 
L 306.457235 114.65613 
L 306.457235 114.65613 
" clip-path="url(#p74c14d9cd4)" style="fill: none; stroke: #000000; stroke-width: 1.5; stroke-linecap: square"/>
   </g>
   <g id="line2d_31">
    <path d="M 38.495 228.959219 
" clip-path="url(#p74c14d9cd4)" style="fill: none; stroke: #2ca02c; stroke-opacity: 0.7; stroke-width: 1.5; stroke-linecap: square"/>
    <defs>
     <path id="m0c71ace2a8" d="M 0 2 
C 0.530406 2 1.03916 1.789267 1.414214 1.414214 
C 1.789267 1.03916 2 0.530406 2 0 
C 2 -0.530406 1.789267 -1.03916 1.414214 -1.414214 
C 1.03916 -1.789267 0.530406 -2 0 -2 
C -0.530406 -2 -1.03916 -1.789267 -1.414214 -1.414214 
C -1.789267 -1.03916 -2 -0.530406 -2 0 
C -2 0.530406 -1.789267 1.03916 -1.414214 1.414214 
C -1.03916 1.789267 -0.530406 2 0 2 
z
" style="stroke: #2ca02c; stroke-opacity: 0.7"/>
    </defs>
    <g clip-path="url(#p74c14d9cd4)">
     <use xlink:href="#m0c71ace2a8" x="38.495" y="228.959219" style="fill: #2ca02c; fill-opacity: 0.7; stroke: #2ca02c; stroke-opacity: 0.7"/>
    </g>
   </g>
   <g id="line2d_32">
    <path d="M 38.495 228.959219 
" clip-path="url(#p74c14d9cd4)" style="fill: none; stroke: #bcbd22; stroke-opacity: 0.7; stroke-width: 1.5; stroke-linecap: square"/>
    <defs>
     <path id="mb9a1521845" d="M 0 2 
C 0.530406 2 1.03916 1.789267 1.414214 1.414214 
C 1.789267 1.03916 2 0.530406 2 0 
C 2 -0.530406 1.789267 -1.03916 1.414214 -1.414214 
C 1.03916 -1.789267 0.530406 -2 0 -2 
C -0.530406 -2 -1.03916 -1.789267 -1.414214 -1.414214 
C -1.789267 -1.03916 -2 -0.530406 -2 0 
C -2 0.530406 -1.789267 1.03916 -1.414214 1.414214 
C -1.03916 1.789267 -0.530406 2 0 2 
z
" style="stroke: #bcbd22; stroke-opacity: 0.7"/>
    </defs>
    <g clip-path="url(#p74c14d9cd4)">
     <use xlink:href="#mb9a1521845" x="38.495" y="228.959219" style="fill: #bcbd22; fill-opacity: 0.7; stroke: #bcbd22; stroke-opacity: 0.7"/>
    </g>
   </g>
   <g id="line2d_33">
    <path d="M 38.495 228.959219 
" clip-path="url(#p74c14d9cd4)" style="fill: none; stroke: #9467bd; stroke-opacity: 0.7; stroke-width: 1.5; stroke-linecap: square"/>
    <defs>
     <path id="m8f94af21e9" d="M 0 2 
C 0.530406 2 1.03916 1.789267 1.414214 1.414214 
C 1.789267 1.03916 2 0.530406 2 0 
C 2 -0.530406 1.789267 -1.03916 1.414214 -1.414214 
C 1.03916 -1.789267 0.530406 -2 0 -2 
C -0.530406 -2 -1.03916 -1.789267 -1.414214 -1.414214 
C -1.789267 -1.03916 -2 -0.530406 -2 0 
C -2 0.530406 -1.789267 1.03916 -1.414214 1.414214 
C -1.03916 1.789267 -0.530406 2 0 2 
z
" style="stroke: #9467bd; stroke-opacity: 0.7"/>
    </defs>
    <g clip-path="url(#p74c14d9cd4)">
     <use xlink:href="#m8f94af21e9" x="38.495" y="228.959219" style="fill: #9467bd; fill-opacity: 0.7; stroke: #9467bd; stroke-opacity: 0.7"/>
    </g>
   </g>
   <g id="line2d_34">
    <path d="M 38.495 228.959219 
" clip-path="url(#p74c14d9cd4)" style="fill: none; stroke: #8c564b; stroke-opacity: 0.7; stroke-width: 1.5; stroke-linecap: square"/>
    <defs>
     <path id="mc07bed1c6e" d="M 0 2 
C 0.530406 2 1.03916 1.789267 1.414214 1.414214 
C 1.789267 1.03916 2 0.530406 2 0 
C 2 -0.530406 1.789267 -1.03916 1.414214 -1.414214 
C 1.03916 -1.789267 0.530406 -2 0 -2 
C -0.530406 -2 -1.03916 -1.789267 -1.414214 -1.414214 
C -1.789267 -1.03916 -2 -0.530406 -2 0 
C -2 0.530406 -1.789267 1.03916 -1.414214 1.414214 
C -1.03916 1.789267 -0.530406 2 0 2 
z
" style="stroke: #8c564b; stroke-opacity: 0.7"/>
    </defs>
    <g clip-path="url(#p74c14d9cd4)">
     <use xlink:href="#mc07bed1c6e" x="38.495" y="228.959219" style="fill: #8c564b; fill-opacity: 0.7; stroke: #8c564b; stroke-opacity: 0.7"/>
    </g>
   </g>
   <g id="line2d_35">
    <path d="M 38.495 228.959219 
" clip-path="url(#p74c14d9cd4)" style="fill: none; stroke: #7f7f7f; stroke-opacity: 0.7; stroke-width: 1.5; stroke-linecap: square"/>
    <defs>
     <path id="mb0fe5d423c" d="M 0 2 
C 0.530406 2 1.03916 1.789267 1.414214 1.414214 
C 1.789267 1.03916 2 0.530406 2 0 
C 2 -0.530406 1.789267 -1.03916 1.414214 -1.414214 
C 1.03916 -1.789267 0.530406 -2 0 -2 
C -0.530406 -2 -1.03916 -1.789267 -1.414214 -1.414214 
C -1.789267 -1.03916 -2 -0.530406 -2 0 
C -2 0.530406 -1.789267 1.03916 -1.414214 1.414214 
C -1.03916 1.789267 -0.530406 2 0 2 
z
" style="stroke: #7f7f7f; stroke-opacity: 0.7"/>
    </defs>
    <g clip-path="url(#p74c14d9cd4)">
     <use xlink:href="#mb0fe5d423c" x="38.495" y="228.959219" style="fill: #7f7f7f; fill-opacity: 0.7; stroke: #7f7f7f; stroke-opacity: 0.7"/>
    </g>
   </g>
   <g id="line2d_36">
    <path d="M 38.495 228.959219 
" clip-path="url(#p74c14d9cd4)" style="fill: none; stroke: #000000; stroke-opacity: 0.7; stroke-width: 1.5; stroke-linecap: square"/>
    <defs>
     <path id="m530ce4cb80" d="M 0 2 
C 0.530406 2 1.03916 1.789267 1.414214 1.414214 
C 1.789267 1.03916 2 0.530406 2 0 
C 2 -0.530406 1.789267 -1.03916 1.414214 -1.414214 
C 1.03916 -1.789267 0.530406 -2 0 -2 
C -0.530406 -2 -1.03916 -1.789267 -1.414214 -1.414214 
C -1.789267 -1.03916 -2 -0.530406 -2 0 
C -2 0.530406 -1.789267 1.03916 -1.414214 1.414214 
C -1.03916 1.789267 -0.530406 2 0 2 
z
" style="stroke: #000000; stroke-opacity: 0.7"/>
    </defs>
    <g clip-path="url(#p74c14d9cd4)">
     <use xlink:href="#m530ce4cb80" x="38.495" y="228.959219" style="fill-opacity: 0.7; stroke: #000000; stroke-opacity: 0.7"/>
    </g>
   </g>
   <g id="patch_3">
    <path d="M 38.495 228.959219 
L 38.495 5.959219 
" style="fill: none; stroke: #000000; stroke-width: 0.8; stroke-linejoin: miter; stroke-linecap: square"/>
   </g>
   <g id="patch_4">
    <path d="M 302.103529 228.959219 
L 302.103529 5.959219 
" style="fill: none; stroke: #000000; stroke-width: 0.8; stroke-linejoin: miter; stroke-linecap: square"/>
   </g>
   <g id="patch_5">
    <path d="M 38.495 228.959219 
L 302.103529 228.959219 
" style="fill: none; stroke: #000000; stroke-width: 0.8; stroke-linejoin: miter; stroke-linecap: square"/>
   </g>
   <g id="patch_6">
    <path d="M 38.495 5.959219 
L 302.103529 5.959219 
" style="fill: none; stroke: #000000; stroke-width: 0.8; stroke-linejoin: miter; stroke-linecap: square"/>
   </g>
   <g id="text_15">
    <!--  M-Block Seq fit: -->
    <g transform="translate(162.045 22.317188) scale(0.13 -0.13)">
     <defs>
      <path id="DejaVuSans-4d" d="M 628 4666 
L 1569 4666 
L 2759 1491 
L 3956 4666 
L 4897 4666 
L 4897 0 
L 4281 0 
L 4281 4097 
L 3078 897 
L 2444 897 
L 1241 4097 
L 1241 0 
L 628 0 
L 628 4666 
z
" transform="scale(0.015625)"/>
      <path id="DejaVuSans-42" d="M 1259 2228 
L 1259 519 
L 2272 519 
Q 2781 519 3026 730 
Q 3272 941 3272 1375 
Q 3272 1813 3026 2020 
Q 2781 2228 2272 2228 
L 1259 2228 
z
M 1259 4147 
L 1259 2741 
L 2194 2741 
Q 2656 2741 2882 2914 
Q 3109 3088 3109 3444 
Q 3109 3797 2882 3972 
Q 2656 4147 2194 4147 
L 1259 4147 
z
M 628 4666 
L 2241 4666 
Q 2963 4666 3353 4366 
Q 3744 4066 3744 3513 
Q 3744 3084 3544 2831 
Q 3344 2578 2956 2516 
Q 3422 2416 3680 2098 
Q 3938 1781 3938 1306 
Q 3938 681 3513 340 
Q 3088 0 2303 0 
L 628 0 
L 628 4666 
z
" transform="scale(0.015625)"/>
      <path id="DejaVuSans-6b" d="M 581 4863 
L 1159 4863 
L 1159 1991 
L 2875 3500 
L 3609 3500 
L 1753 1863 
L 3688 0 
L 2938 0 
L 1159 1709 
L 1159 0 
L 581 0 
L 581 4863 
z
" transform="scale(0.015625)"/>
      <path id="DejaVuSans-71" d="M 947 1747 
Q 947 1113 1208 752 
Q 1469 391 1925 391 
Q 2381 391 2643 752 
Q 2906 1113 2906 1747 
Q 2906 2381 2643 2742 
Q 2381 3103 1925 3103 
Q 1469 3103 1208 2742 
Q 947 2381 947 1747 
z
M 2906 525 
Q 2725 213 2448 61 
Q 2172 -91 1784 -91 
Q 1150 -91 751 415 
Q 353 922 353 1747 
Q 353 2572 751 3078 
Q 1150 3584 1784 3584 
Q 2172 3584 2448 3432 
Q 2725 3281 2906 2969 
L 2906 3500 
L 3481 3500 
L 3481 -1331 
L 2906 -1331 
L 2906 525 
z
" transform="scale(0.015625)"/>
      <path id="DejaVuSans-69" d="M 603 3500 
L 1178 3500 
L 1178 0 
L 603 0 
L 603 3500 
z
M 603 4863 
L 1178 4863 
L 1178 4134 
L 603 4134 
L 603 4863 
z
" transform="scale(0.015625)"/>
      <path id="DejaVuSans-3a" d="M 750 794 
L 1409 794 
L 1409 0 
L 750 0 
L 750 794 
z
M 750 3309 
L 1409 3309 
L 1409 2516 
L 750 2516 
L 750 3309 
z
" transform="scale(0.015625)"/>
     </defs>
     <use xlink:href="#DejaVuSans-20"/>
     <use xlink:href="#DejaVuSans-4d" x="31.787109"/>
     <use xlink:href="#DejaVuSans-2d" x="118.066406"/>
     <use xlink:href="#DejaVuSans-42" x="150.525391"/>
     <use xlink:href="#DejaVuSans-6c" x="219.128906"/>
     <use xlink:href="#DejaVuSans-6f" x="246.912109"/>
     <use xlink:href="#DejaVuSans-63" x="308.09375"/>
     <use xlink:href="#DejaVuSans-6b" x="363.074219"/>
     <use xlink:href="#DejaVuSans-20" x="420.984375"/>
     <use xlink:href="#DejaVuSans-53" x="452.771484"/>
     <use xlink:href="#DejaVuSans-65" x="516.248047"/>
     <use xlink:href="#DejaVuSans-71" x="577.771484"/>
     <use xlink:href="#DejaVuSans-20" x="641.248047"/>
     <use xlink:href="#DejaVuSans-66" x="673.035156"/>
     <use xlink:href="#DejaVuSans-69" x="708.240234"/>
     <use xlink:href="#DejaVuSans-74" x="736.023438"/>
     <use xlink:href="#DejaVuSans-3a" x="775.232422"/>
    </g>
    <!--   ε = -8.99 ${k_BT}$  -->
    <g transform="translate(162.045 36.874344) scale(0.13 -0.13)">
     <defs>
      <path id="DejaVuSans-3b5" d="M 1234 1888 
Q 884 1963 697 2166 
Q 509 2366 509 2656 
Q 509 3097 866 3344 
Q 1219 3588 1831 3588 
Q 2069 3588 2334 3550 
Q 2600 3513 2906 3438 
L 2906 2916 
Q 2603 3006 2353 3047 
Q 2100 3088 1878 3088 
Q 1506 3088 1291 2944 
Q 1072 2800 1072 2600 
Q 1072 2381 1284 2241 
Q 1494 2103 1856 2103 
L 2341 2103 
L 2341 1628 
L 1878 1628 
Q 1450 1628 1225 1469 
Q 981 1294 981 1019 
Q 981 738 1244 563 
Q 1509 388 1981 388 
Q 2272 388 2538 444 
Q 2803 503 3025 619 
L 3025 84 
Q 2744 -3 2481 -47 
Q 2216 -91 1966 -91 
Q 1222 -91 819 194 
Q 416 478 416 1019 
Q 416 1356 631 1584 
Q 847 1813 1234 1888 
z
" transform="scale(0.015625)"/>
      <path id="DejaVuSans-3d" d="M 678 2906 
L 4684 2906 
L 4684 2381 
L 678 2381 
L 678 2906 
z
M 678 1631 
L 4684 1631 
L 4684 1100 
L 678 1100 
L 678 1631 
z
" transform="scale(0.015625)"/>
      <path id="DejaVuSans-38" d="M 2034 2216 
Q 1584 2216 1326 1975 
Q 1069 1734 1069 1313 
Q 1069 891 1326 650 
Q 1584 409 2034 409 
Q 2484 409 2743 651 
Q 3003 894 3003 1313 
Q 3003 1734 2745 1975 
Q 2488 2216 2034 2216 
z
M 1403 2484 
Q 997 2584 770 2862 
Q 544 3141 544 3541 
Q 544 4100 942 4425 
Q 1341 4750 2034 4750 
Q 2731 4750 3128 4425 
Q 3525 4100 3525 3541 
Q 3525 3141 3298 2862 
Q 3072 2584 2669 2484 
Q 3125 2378 3379 2068 
Q 3634 1759 3634 1313 
Q 3634 634 3220 271 
Q 2806 -91 2034 -91 
Q 1263 -91 848 271 
Q 434 634 434 1313 
Q 434 1759 690 2068 
Q 947 2378 1403 2484 
z
M 1172 3481 
Q 1172 3119 1398 2916 
Q 1625 2713 2034 2713 
Q 2441 2713 2670 2916 
Q 2900 3119 2900 3481 
Q 2900 3844 2670 4047 
Q 2441 4250 2034 4250 
Q 1625 4250 1398 4047 
Q 1172 3844 1172 3481 
z
" transform="scale(0.015625)"/>
      <path id="DejaVuSans-2e" d="M 684 794 
L 1344 794 
L 1344 0 
L 684 0 
L 684 794 
z
" transform="scale(0.015625)"/>
      <path id="DejaVuSans-39" d="M 703 97 
L 703 672 
Q 941 559 1184 500 
Q 1428 441 1663 441 
Q 2288 441 2617 861 
Q 2947 1281 2994 2138 
Q 2813 1869 2534 1725 
Q 2256 1581 1919 1581 
Q 1219 1581 811 2004 
Q 403 2428 403 3163 
Q 403 3881 828 4315 
Q 1253 4750 1959 4750 
Q 2769 4750 3195 4129 
Q 3622 3509 3622 2328 
Q 3622 1225 3098 567 
Q 2575 -91 1691 -91 
Q 1453 -91 1209 -44 
Q 966 3 703 97 
z
M 1959 2075 
Q 2384 2075 2632 2365 
Q 2881 2656 2881 3163 
Q 2881 3666 2632 3958 
Q 2384 4250 1959 4250 
Q 1534 4250 1286 3958 
Q 1038 3666 1038 3163 
Q 1038 2656 1286 2365 
Q 1534 2075 1959 2075 
z
" transform="scale(0.015625)"/>
      <path id="DejaVuSans-Oblique-6b" d="M 1172 4863 
L 1747 4863 
L 1197 2028 
L 3169 3500 
L 3916 3500 
L 1716 1825 
L 3322 0 
L 2625 0 
L 1131 1709 
L 800 0 
L 225 0 
L 1172 4863 
z
" transform="scale(0.015625)"/>
     </defs>
     <use xlink:href="#DejaVuSans-20" transform="translate(0 0.015625)"/>
     <use xlink:href="#DejaVuSans-20" transform="translate(31.787109 0.015625)"/>
     <use xlink:href="#DejaVuSans-3b5" transform="translate(63.574219 0.015625)"/>
     <use xlink:href="#DejaVuSans-20" transform="translate(117.626953 0.015625)"/>
     <use xlink:href="#DejaVuSans-3d" transform="translate(149.414062 0.015625)"/>
     <use xlink:href="#DejaVuSans-20" transform="translate(233.203125 0.015625)"/>
     <use xlink:href="#DejaVuSans-2d" transform="translate(264.990234 0.015625)"/>
     <use xlink:href="#DejaVuSans-38" transform="translate(301.074219 0.015625)"/>
     <use xlink:href="#DejaVuSans-2e" transform="translate(364.697266 0.015625)"/>
     <use xlink:href="#DejaVuSans-39" transform="translate(396.484375 0.015625)"/>
     <use xlink:href="#DejaVuSans-39" transform="translate(460.107422 0.015625)"/>
     <use xlink:href="#DejaVuSans-20" transform="translate(523.730469 0.015625)"/>
     <use xlink:href="#DejaVuSans-Oblique-6b" transform="translate(555.517578 0.015625)"/>
     <use xlink:href="#DejaVuSans-Oblique-42" transform="translate(613.427734 -16.390625) scale(0.7)"/>
     <use xlink:href="#DejaVuSans-Oblique-54" transform="translate(664.18457 0.015625)"/>
     <use xlink:href="#DejaVuSans-20" transform="translate(725.268555 0.015625)"/>
    </g>
    <!--   σ = 629 nm${^2}$ -->
    <g transform="translate(162.045 51.4315) scale(0.13 -0.13)">
     <defs>
      <path id="DejaVuSans-3c3" d="M 1959 3044 
Q 1484 3044 1228 2700 
Q 959 2341 959 1747 
Q 959 1119 1226 758 
Q 1494 397 1959 397 
Q 2419 397 2687 759 
Q 2956 1122 2956 1747 
Q 2956 2319 2688 2700 
Q 2441 3044 1959 3044 
z
M 1959 3500 
L 3869 3500 
L 3869 2925 
L 3225 2925 
Q 3566 2438 3566 1747 
Q 3566 888 3138 400 
Q 2709 -91 1959 -91 
Q 1206 -91 781 400 
Q 353 888 353 1747 
Q 353 2613 781 3097 
Q 1134 3500 1959 3500 
z
" transform="scale(0.015625)"/>
      <path id="DejaVuSans-36" d="M 2113 2584 
Q 1688 2584 1439 2293 
Q 1191 2003 1191 1497 
Q 1191 994 1439 701 
Q 1688 409 2113 409 
Q 2538 409 2786 701 
Q 3034 994 3034 1497 
Q 3034 2003 2786 2293 
Q 2538 2584 2113 2584 
z
M 3366 4563 
L 3366 3988 
Q 3128 4100 2886 4159 
Q 2644 4219 2406 4219 
Q 1781 4219 1451 3797 
Q 1122 3375 1075 2522 
Q 1259 2794 1537 2939 
Q 1816 3084 2150 3084 
Q 2853 3084 3261 2657 
Q 3669 2231 3669 1497 
Q 3669 778 3244 343 
Q 2819 -91 2113 -91 
Q 1303 -91 875 529 
Q 447 1150 447 2328 
Q 447 3434 972 4092 
Q 1497 4750 2381 4750 
Q 2619 4750 2861 4703 
Q 3103 4656 3366 4563 
z
" transform="scale(0.015625)"/>
     </defs>
     <use xlink:href="#DejaVuSans-20" transform="translate(0 0.765625)"/>
     <use xlink:href="#DejaVuSans-20" transform="translate(31.787109 0.765625)"/>
     <use xlink:href="#DejaVuSans-3c3" transform="translate(63.574219 0.765625)"/>
     <use xlink:href="#DejaVuSans-20" transform="translate(126.953125 0.765625)"/>
     <use xlink:href="#DejaVuSans-3d" transform="translate(158.740234 0.765625)"/>
     <use xlink:href="#DejaVuSans-20" transform="translate(242.529297 0.765625)"/>
     <use xlink:href="#DejaVuSans-36" transform="translate(274.316406 0.765625)"/>
     <use xlink:href="#DejaVuSans-32" transform="translate(337.939453 0.765625)"/>
     <use xlink:href="#DejaVuSans-39" transform="translate(399.8125 0.765625)"/>
     <use xlink:href="#DejaVuSans-20" transform="translate(463.435547 0.765625)"/>
     <use xlink:href="#DejaVuSans-6e" transform="translate(495.222656 0.765625)"/>
     <use xlink:href="#DejaVuSans-6d" transform="translate(558.601562 0.765625)"/>
     <use xlink:href="#DejaVuSans-32" transform="translate(656.970703 39.046875) scale(0.7)"/>
    </g>
   </g>
   <g id="LineCollection_7">
    <path d="M 38.495 228.959219 
L 38.495 228.959219 
" clip-path="url(#p74c14d9cd4)" style="fill: none; stroke: #2ca02c; stroke-opacity: 0.8; stroke-width: 1.5"/>
    <path d="M 64.338973 206.665165 
L 64.338973 206.659219 
" clip-path="url(#p74c14d9cd4)" style="fill: none; stroke: #2ca02c; stroke-opacity: 0.8; stroke-width: 1.5"/>
    <path d="M 90.182947 184.359219 
L 90.182947 184.359219 
" clip-path="url(#p74c14d9cd4)" style="fill: none; stroke: #2ca02c; stroke-opacity: 0.8; stroke-width: 1.5"/>
    <path d="M 167.714867 117.477059 
L 167.714867 117.459219 
" clip-path="url(#p74c14d9cd4)" style="fill: none; stroke: #2ca02c; stroke-opacity: 0.8; stroke-width: 1.5"/>
    <path d="M 219.402814 72.906792 
L 219.402814 72.859219 
" clip-path="url(#p74c14d9cd4)" style="fill: none; stroke: #2ca02c; stroke-opacity: 0.8; stroke-width: 1.5"/>
    <path d="M 296.934735 6.261219 
L 296.934735 5.972392 
" clip-path="url(#p74c14d9cd4)" style="fill: none; stroke: #2ca02c; stroke-opacity: 0.8; stroke-width: 1.5"/>
   </g>
   <g id="line2d_37">
    <defs>
     <path id="m5f86ebc594" d="M 3 0 
L -3 -0 
" style="stroke: #2ca02c; stroke-opacity: 0.8"/>
    </defs>
    <g clip-path="url(#p74c14d9cd4)">
     <use xlink:href="#m5f86ebc594" x="38.495" y="228.959219" style="fill: #2ca02c; fill-opacity: 0.8; stroke: #2ca02c; stroke-opacity: 0.8"/>
     <use xlink:href="#m5f86ebc594" x="64.338973" y="206.665165" style="fill: #2ca02c; fill-opacity: 0.8; stroke: #2ca02c; stroke-opacity: 0.8"/>
     <use xlink:href="#m5f86ebc594" x="90.182947" y="184.359219" style="fill: #2ca02c; fill-opacity: 0.8; stroke: #2ca02c; stroke-opacity: 0.8"/>
     <use xlink:href="#m5f86ebc594" x="167.714867" y="117.477059" style="fill: #2ca02c; fill-opacity: 0.8; stroke: #2ca02c; stroke-opacity: 0.8"/>
     <use xlink:href="#m5f86ebc594" x="219.402814" y="72.906792" style="fill: #2ca02c; fill-opacity: 0.8; stroke: #2ca02c; stroke-opacity: 0.8"/>
     <use xlink:href="#m5f86ebc594" x="296.934735" y="6.261219" style="fill: #2ca02c; fill-opacity: 0.8; stroke: #2ca02c; stroke-opacity: 0.8"/>
    </g>
   </g>
   <g id="line2d_38">
    <g clip-path="url(#p74c14d9cd4)">
     <use xlink:href="#m5f86ebc594" x="38.495" y="228.959219" style="fill: #2ca02c; fill-opacity: 0.8; stroke: #2ca02c; stroke-opacity: 0.8"/>
     <use xlink:href="#m5f86ebc594" x="64.338973" y="206.659219" style="fill: #2ca02c; fill-opacity: 0.8; stroke: #2ca02c; stroke-opacity: 0.8"/>
     <use xlink:href="#m5f86ebc594" x="90.182947" y="184.359219" style="fill: #2ca02c; fill-opacity: 0.8; stroke: #2ca02c; stroke-opacity: 0.8"/>
     <use xlink:href="#m5f86ebc594" x="167.714867" y="117.459219" style="fill: #2ca02c; fill-opacity: 0.8; stroke: #2ca02c; stroke-opacity: 0.8"/>
     <use xlink:href="#m5f86ebc594" x="219.402814" y="72.859219" style="fill: #2ca02c; fill-opacity: 0.8; stroke: #2ca02c; stroke-opacity: 0.8"/>
     <use xlink:href="#m5f86ebc594" x="296.934735" y="5.972392" style="fill: #2ca02c; fill-opacity: 0.8; stroke: #2ca02c; stroke-opacity: 0.8"/>
    </g>
   </g>
   <g id="LineCollection_8">
    <path d="M 38.495 228.959219 
L 38.495 228.959219 
" clip-path="url(#p74c14d9cd4)" style="fill: none; stroke: #bcbd22; stroke-opacity: 0.8; stroke-width: 1.5"/>
    <path d="M 64.338973 206.659219 
L 64.338973 206.659219 
" clip-path="url(#p74c14d9cd4)" style="fill: none; stroke: #bcbd22; stroke-opacity: 0.8; stroke-width: 1.5"/>
    <path d="M 90.182947 184.377059 
L 90.182947 184.359219 
" clip-path="url(#p74c14d9cd4)" style="fill: none; stroke: #bcbd22; stroke-opacity: 0.8; stroke-width: 1.5"/>
    <path d="M 167.714867 118.224698 
L 167.714867 117.579793 
" clip-path="url(#p74c14d9cd4)" style="fill: none; stroke: #bcbd22; stroke-opacity: 0.8; stroke-width: 1.5"/>
    <path d="M 219.402814 72.859219 
L 219.402814 72.859219 
" clip-path="url(#p74c14d9cd4)" style="fill: none; stroke: #bcbd22; stroke-opacity: 0.8; stroke-width: 1.5"/>
    <path d="M 296.934735 7.741239 
L 296.934735 6.068238 
" clip-path="url(#p74c14d9cd4)" style="fill: none; stroke: #bcbd22; stroke-opacity: 0.8; stroke-width: 1.5"/>
   </g>
   <g id="line2d_39">
    <defs>
     <path id="m3f32ae01e2" d="M 3 0 
L -3 -0 
" style="stroke: #bcbd22; stroke-opacity: 0.8"/>
    </defs>
    <g clip-path="url(#p74c14d9cd4)">
     <use xlink:href="#m3f32ae01e2" x="38.495" y="228.959219" style="fill: #bcbd22; fill-opacity: 0.8; stroke: #bcbd22; stroke-opacity: 0.8"/>
     <use xlink:href="#m3f32ae01e2" x="64.338973" y="206.659219" style="fill: #bcbd22; fill-opacity: 0.8; stroke: #bcbd22; stroke-opacity: 0.8"/>
     <use xlink:href="#m3f32ae01e2" x="90.182947" y="184.377059" style="fill: #bcbd22; fill-opacity: 0.8; stroke: #bcbd22; stroke-opacity: 0.8"/>
     <use xlink:href="#m3f32ae01e2" x="167.714867" y="118.224698" style="fill: #bcbd22; fill-opacity: 0.8; stroke: #bcbd22; stroke-opacity: 0.8"/>
     <use xlink:href="#m3f32ae01e2" x="219.402814" y="72.859219" style="fill: #bcbd22; fill-opacity: 0.8; stroke: #bcbd22; stroke-opacity: 0.8"/>
     <use xlink:href="#m3f32ae01e2" x="296.934735" y="7.741239" style="fill: #bcbd22; fill-opacity: 0.8; stroke: #bcbd22; stroke-opacity: 0.8"/>
    </g>
   </g>
   <g id="line2d_40">
    <g clip-path="url(#p74c14d9cd4)">
     <use xlink:href="#m3f32ae01e2" x="38.495" y="228.959219" style="fill: #bcbd22; fill-opacity: 0.8; stroke: #bcbd22; stroke-opacity: 0.8"/>
     <use xlink:href="#m3f32ae01e2" x="64.338973" y="206.659219" style="fill: #bcbd22; fill-opacity: 0.8; stroke: #bcbd22; stroke-opacity: 0.8"/>
     <use xlink:href="#m3f32ae01e2" x="90.182947" y="184.359219" style="fill: #bcbd22; fill-opacity: 0.8; stroke: #bcbd22; stroke-opacity: 0.8"/>
     <use xlink:href="#m3f32ae01e2" x="167.714867" y="117.579793" style="fill: #bcbd22; fill-opacity: 0.8; stroke: #bcbd22; stroke-opacity: 0.8"/>
     <use xlink:href="#m3f32ae01e2" x="219.402814" y="72.859219" style="fill: #bcbd22; fill-opacity: 0.8; stroke: #bcbd22; stroke-opacity: 0.8"/>
     <use xlink:href="#m3f32ae01e2" x="296.934735" y="6.068238" style="fill: #bcbd22; fill-opacity: 0.8; stroke: #bcbd22; stroke-opacity: 0.8"/>
    </g>
   </g>
   <g id="LineCollection_9">
    <path d="M 38.495 228.959219 
L 38.495 228.959219 
" clip-path="url(#p74c14d9cd4)" style="fill: none; stroke: #9467bd; stroke-opacity: 0.8; stroke-width: 1.5"/>
    <path d="M 64.338973 206.659219 
L 64.338973 206.659219 
" clip-path="url(#p74c14d9cd4)" style="fill: none; stroke: #9467bd; stroke-opacity: 0.8; stroke-width: 1.5"/>
    <path d="M 90.182947 184.805219 
L 90.182947 184.359219 
" clip-path="url(#p74c14d9cd4)" style="fill: none; stroke: #9467bd; stroke-opacity: 0.8; stroke-width: 1.5"/>
    <path d="M 167.714867 118.386899 
L 167.714867 117.459219 
" clip-path="url(#p74c14d9cd4)" style="fill: none; stroke: #9467bd; stroke-opacity: 0.8; stroke-width: 1.5"/>
    <path d="M 219.402814 76.495785 
L 219.402814 73.991879 
" clip-path="url(#p74c14d9cd4)" style="fill: none; stroke: #9467bd; stroke-opacity: 0.8; stroke-width: 1.5"/>
    <path d="M 296.934735 39.931773 
L 296.934735 23.240984 
" clip-path="url(#p74c14d9cd4)" style="fill: none; stroke: #9467bd; stroke-opacity: 0.8; stroke-width: 1.5"/>
   </g>
   <g id="line2d_41">
    <defs>
     <path id="m097f960246" d="M 3 0 
L -3 -0 
" style="stroke: #9467bd; stroke-opacity: 0.8"/>
    </defs>
    <g clip-path="url(#p74c14d9cd4)">
     <use xlink:href="#m097f960246" x="38.495" y="228.959219" style="fill: #9467bd; fill-opacity: 0.8; stroke: #9467bd; stroke-opacity: 0.8"/>
     <use xlink:href="#m097f960246" x="64.338973" y="206.659219" style="fill: #9467bd; fill-opacity: 0.8; stroke: #9467bd; stroke-opacity: 0.8"/>
     <use xlink:href="#m097f960246" x="90.182947" y="184.805219" style="fill: #9467bd; fill-opacity: 0.8; stroke: #9467bd; stroke-opacity: 0.8"/>
     <use xlink:href="#m097f960246" x="167.714867" y="118.386899" style="fill: #9467bd; fill-opacity: 0.8; stroke: #9467bd; stroke-opacity: 0.8"/>
     <use xlink:href="#m097f960246" x="219.402814" y="76.495785" style="fill: #9467bd; fill-opacity: 0.8; stroke: #9467bd; stroke-opacity: 0.8"/>
     <use xlink:href="#m097f960246" x="296.934735" y="39.931773" style="fill: #9467bd; fill-opacity: 0.8; stroke: #9467bd; stroke-opacity: 0.8"/>
    </g>
   </g>
   <g id="line2d_42">
    <g clip-path="url(#p74c14d9cd4)">
     <use xlink:href="#m097f960246" x="38.495" y="228.959219" style="fill: #9467bd; fill-opacity: 0.8; stroke: #9467bd; stroke-opacity: 0.8"/>
     <use xlink:href="#m097f960246" x="64.338973" y="206.659219" style="fill: #9467bd; fill-opacity: 0.8; stroke: #9467bd; stroke-opacity: 0.8"/>
     <use xlink:href="#m097f960246" x="90.182947" y="184.359219" style="fill: #9467bd; fill-opacity: 0.8; stroke: #9467bd; stroke-opacity: 0.8"/>
     <use xlink:href="#m097f960246" x="167.714867" y="117.459219" style="fill: #9467bd; fill-opacity: 0.8; stroke: #9467bd; stroke-opacity: 0.8"/>
     <use xlink:href="#m097f960246" x="219.402814" y="73.991879" style="fill: #9467bd; fill-opacity: 0.8; stroke: #9467bd; stroke-opacity: 0.8"/>
     <use xlink:href="#m097f960246" x="296.934735" y="23.240984" style="fill: #9467bd; fill-opacity: 0.8; stroke: #9467bd; stroke-opacity: 0.8"/>
    </g>
   </g>
   <g id="LineCollection_10">
    <path d="M 38.495 228.959219 
L 38.495 228.959219 
" clip-path="url(#p74c14d9cd4)" style="fill: none; stroke: #8c564b; stroke-opacity: 0.8; stroke-width: 1.5"/>
    <path d="M 64.338973 206.694899 
L 64.338973 206.659219 
" clip-path="url(#p74c14d9cd4)" style="fill: none; stroke: #8c564b; stroke-opacity: 0.8; stroke-width: 1.5"/>
    <path d="M 90.182947 185.253803 
L 90.182947 184.594501 
" clip-path="url(#p74c14d9cd4)" style="fill: none; stroke: #8c564b; stroke-opacity: 0.8; stroke-width: 1.5"/>
    <path d="M 167.714867 125.675 
L 167.714867 122.855358 
" clip-path="url(#p74c14d9cd4)" style="fill: none; stroke: #8c564b; stroke-opacity: 0.8; stroke-width: 1.5"/>
    <path d="M 219.402814 102.951692 
L 219.402814 91.571038 
" clip-path="url(#p74c14d9cd4)" style="fill: none; stroke: #8c564b; stroke-opacity: 0.8; stroke-width: 1.5"/>
    <path d="M 296.934735 89.367748 
L 296.934735 85.863996 
" clip-path="url(#p74c14d9cd4)" style="fill: none; stroke: #8c564b; stroke-opacity: 0.8; stroke-width: 1.5"/>
   </g>
   <g id="line2d_43">
    <defs>
     <path id="mb9f23f9ecf" d="M 3 0 
L -3 -0 
" style="stroke: #8c564b; stroke-opacity: 0.8"/>
    </defs>
    <g clip-path="url(#p74c14d9cd4)">
     <use xlink:href="#mb9f23f9ecf" x="38.495" y="228.959219" style="fill: #8c564b; fill-opacity: 0.8; stroke: #8c564b; stroke-opacity: 0.8"/>
     <use xlink:href="#mb9f23f9ecf" x="64.338973" y="206.694899" style="fill: #8c564b; fill-opacity: 0.8; stroke: #8c564b; stroke-opacity: 0.8"/>
     <use xlink:href="#mb9f23f9ecf" x="90.182947" y="185.253803" style="fill: #8c564b; fill-opacity: 0.8; stroke: #8c564b; stroke-opacity: 0.8"/>
     <use xlink:href="#mb9f23f9ecf" x="167.714867" y="125.675" style="fill: #8c564b; fill-opacity: 0.8; stroke: #8c564b; stroke-opacity: 0.8"/>
     <use xlink:href="#mb9f23f9ecf" x="219.402814" y="102.951692" style="fill: #8c564b; fill-opacity: 0.8; stroke: #8c564b; stroke-opacity: 0.8"/>
     <use xlink:href="#mb9f23f9ecf" x="296.934735" y="89.367748" style="fill: #8c564b; fill-opacity: 0.8; stroke: #8c564b; stroke-opacity: 0.8"/>
    </g>
   </g>
   <g id="line2d_44">
    <g clip-path="url(#p74c14d9cd4)">
     <use xlink:href="#mb9f23f9ecf" x="38.495" y="228.959219" style="fill: #8c564b; fill-opacity: 0.8; stroke: #8c564b; stroke-opacity: 0.8"/>
     <use xlink:href="#mb9f23f9ecf" x="64.338973" y="206.659219" style="fill: #8c564b; fill-opacity: 0.8; stroke: #8c564b; stroke-opacity: 0.8"/>
     <use xlink:href="#mb9f23f9ecf" x="90.182947" y="184.594501" style="fill: #8c564b; fill-opacity: 0.8; stroke: #8c564b; stroke-opacity: 0.8"/>
     <use xlink:href="#mb9f23f9ecf" x="167.714867" y="122.855358" style="fill: #8c564b; fill-opacity: 0.8; stroke: #8c564b; stroke-opacity: 0.8"/>
     <use xlink:href="#mb9f23f9ecf" x="219.402814" y="91.571038" style="fill: #8c564b; fill-opacity: 0.8; stroke: #8c564b; stroke-opacity: 0.8"/>
     <use xlink:href="#mb9f23f9ecf" x="296.934735" y="85.863996" style="fill: #8c564b; fill-opacity: 0.8; stroke: #8c564b; stroke-opacity: 0.8"/>
    </g>
   </g>
   <g id="LineCollection_11">
    <path d="M 38.495 228.959219 
L 38.495 228.959219 
" clip-path="url(#p74c14d9cd4)" style="fill: none; stroke: #7f7f7f; stroke-opacity: 0.8; stroke-width: 1.5"/>
    <path d="M 64.338973 207.285573 
L 64.338973 206.930811 
" clip-path="url(#p74c14d9cd4)" style="fill: none; stroke: #7f7f7f; stroke-opacity: 0.8; stroke-width: 1.5"/>
    <path d="M 90.182947 185.627475 
L 90.182947 184.756029 
" clip-path="url(#p74c14d9cd4)" style="fill: none; stroke: #7f7f7f; stroke-opacity: 0.8; stroke-width: 1.5"/>
    <path d="M 167.714867 134.298941 
L 167.714867 126.60643 
" clip-path="url(#p74c14d9cd4)" style="fill: none; stroke: #7f7f7f; stroke-opacity: 0.8; stroke-width: 1.5"/>
    <path d="M 219.402814 116.800405 
L 219.402814 113.134725 
" clip-path="url(#p74c14d9cd4)" style="fill: none; stroke: #7f7f7f; stroke-opacity: 0.8; stroke-width: 1.5"/>
    <path d="M 296.934735 90.166519 
L 296.934735 85.624212 
" clip-path="url(#p74c14d9cd4)" style="fill: none; stroke: #7f7f7f; stroke-opacity: 0.8; stroke-width: 1.5"/>
   </g>
   <g id="line2d_45">
    <defs>
     <path id="mb9aeb9ad84" d="M 3 0 
L -3 -0 
" style="stroke: #7f7f7f; stroke-opacity: 0.8"/>
    </defs>
    <g clip-path="url(#p74c14d9cd4)">
     <use xlink:href="#mb9aeb9ad84" x="38.495" y="228.959219" style="fill: #7f7f7f; fill-opacity: 0.8; stroke: #7f7f7f; stroke-opacity: 0.8"/>
     <use xlink:href="#mb9aeb9ad84" x="64.338973" y="207.285573" style="fill: #7f7f7f; fill-opacity: 0.8; stroke: #7f7f7f; stroke-opacity: 0.8"/>
     <use xlink:href="#mb9aeb9ad84" x="90.182947" y="185.627475" style="fill: #7f7f7f; fill-opacity: 0.8; stroke: #7f7f7f; stroke-opacity: 0.8"/>
     <use xlink:href="#mb9aeb9ad84" x="167.714867" y="134.298941" style="fill: #7f7f7f; fill-opacity: 0.8; stroke: #7f7f7f; stroke-opacity: 0.8"/>
     <use xlink:href="#mb9aeb9ad84" x="219.402814" y="116.800405" style="fill: #7f7f7f; fill-opacity: 0.8; stroke: #7f7f7f; stroke-opacity: 0.8"/>
     <use xlink:href="#mb9aeb9ad84" x="296.934735" y="90.166519" style="fill: #7f7f7f; fill-opacity: 0.8; stroke: #7f7f7f; stroke-opacity: 0.8"/>
    </g>
   </g>
   <g id="line2d_46">
    <g clip-path="url(#p74c14d9cd4)">
     <use xlink:href="#mb9aeb9ad84" x="38.495" y="228.959219" style="fill: #7f7f7f; fill-opacity: 0.8; stroke: #7f7f7f; stroke-opacity: 0.8"/>
     <use xlink:href="#mb9aeb9ad84" x="64.338973" y="206.930811" style="fill: #7f7f7f; fill-opacity: 0.8; stroke: #7f7f7f; stroke-opacity: 0.8"/>
     <use xlink:href="#mb9aeb9ad84" x="90.182947" y="184.756029" style="fill: #7f7f7f; fill-opacity: 0.8; stroke: #7f7f7f; stroke-opacity: 0.8"/>
     <use xlink:href="#mb9aeb9ad84" x="167.714867" y="126.60643" style="fill: #7f7f7f; fill-opacity: 0.8; stroke: #7f7f7f; stroke-opacity: 0.8"/>
     <use xlink:href="#mb9aeb9ad84" x="219.402814" y="113.134725" style="fill: #7f7f7f; fill-opacity: 0.8; stroke: #7f7f7f; stroke-opacity: 0.8"/>
     <use xlink:href="#mb9aeb9ad84" x="296.934735" y="85.624212" style="fill: #7f7f7f; fill-opacity: 0.8; stroke: #7f7f7f; stroke-opacity: 0.8"/>
    </g>
   </g>
   <g id="LineCollection_12">
    <path d="M 38.495 228.959219 
L 38.495 228.959219 
" clip-path="url(#p74c14d9cd4)" style="fill: none; stroke: #000000; stroke-opacity: 0.8; stroke-width: 1.5"/>
    <path d="M 64.338973 207.100319 
L 64.338973 206.693852 
" clip-path="url(#p74c14d9cd4)" style="fill: none; stroke: #000000; stroke-opacity: 0.8; stroke-width: 1.5"/>
    <path d="M 90.182947 187.367374 
L 90.182947 185.58509 
" clip-path="url(#p74c14d9cd4)" style="fill: none; stroke: #000000; stroke-opacity: 0.8; stroke-width: 1.5"/>
    <path d="M 167.714867 140.59417 
L 167.714867 135.231388 
" clip-path="url(#p74c14d9cd4)" style="fill: none; stroke: #000000; stroke-opacity: 0.8; stroke-width: 1.5"/>
    <path d="M 219.402814 120.978212 
L 219.402814 114.897639 
" clip-path="url(#p74c14d9cd4)" style="fill: none; stroke: #000000; stroke-opacity: 0.8; stroke-width: 1.5"/>
    <path d="M 296.934735 100.261723 
L 296.934735 93.541461 
" clip-path="url(#p74c14d9cd4)" style="fill: none; stroke: #000000; stroke-opacity: 0.8; stroke-width: 1.5"/>
   </g>
   <g id="line2d_47">
    <defs>
     <path id="m007bf8ee22" d="M 3 0 
L -3 -0 
" style="stroke: #000000; stroke-opacity: 0.8"/>
    </defs>
    <g clip-path="url(#p74c14d9cd4)">
     <use xlink:href="#m007bf8ee22" x="38.495" y="228.959219" style="fill-opacity: 0.8; stroke: #000000; stroke-opacity: 0.8"/>
     <use xlink:href="#m007bf8ee22" x="64.338973" y="207.100319" style="fill-opacity: 0.8; stroke: #000000; stroke-opacity: 0.8"/>
     <use xlink:href="#m007bf8ee22" x="90.182947" y="187.367374" style="fill-opacity: 0.8; stroke: #000000; stroke-opacity: 0.8"/>
     <use xlink:href="#m007bf8ee22" x="167.714867" y="140.59417" style="fill-opacity: 0.8; stroke: #000000; stroke-opacity: 0.8"/>
     <use xlink:href="#m007bf8ee22" x="219.402814" y="120.978212" style="fill-opacity: 0.8; stroke: #000000; stroke-opacity: 0.8"/>
     <use xlink:href="#m007bf8ee22" x="296.934735" y="100.261723" style="fill-opacity: 0.8; stroke: #000000; stroke-opacity: 0.8"/>
    </g>
   </g>
   <g id="line2d_48">
    <g clip-path="url(#p74c14d9cd4)">
     <use xlink:href="#m007bf8ee22" x="38.495" y="228.959219" style="fill-opacity: 0.8; stroke: #000000; stroke-opacity: 0.8"/>
     <use xlink:href="#m007bf8ee22" x="64.338973" y="206.693852" style="fill-opacity: 0.8; stroke: #000000; stroke-opacity: 0.8"/>
     <use xlink:href="#m007bf8ee22" x="90.182947" y="185.58509" style="fill-opacity: 0.8; stroke: #000000; stroke-opacity: 0.8"/>
     <use xlink:href="#m007bf8ee22" x="167.714867" y="135.231388" style="fill-opacity: 0.8; stroke: #000000; stroke-opacity: 0.8"/>
     <use xlink:href="#m007bf8ee22" x="219.402814" y="114.897639" style="fill-opacity: 0.8; stroke: #000000; stroke-opacity: 0.8"/>
     <use xlink:href="#m007bf8ee22" x="296.934735" y="93.541461" style="fill-opacity: 0.8; stroke: #000000; stroke-opacity: 0.8"/>
    </g>
   </g>
   <g id="line2d_49">
    <defs>
     <path id="mc2916387c1" d="M 0 2 
C 0.530406 2 1.03916 1.789267 1.414214 1.414214 
C 1.789267 1.03916 2 0.530406 2 0 
C 2 -0.530406 1.789267 -1.03916 1.414214 -1.414214 
C 1.03916 -1.789267 0.530406 -2 0 -2 
C -0.530406 -2 -1.03916 -1.789267 -1.414214 -1.414214 
C -1.789267 -1.03916 -2 -0.530406 -2 0 
C -2 0.530406 -1.789267 1.03916 -1.414214 1.414214 
C -1.03916 1.789267 -0.530406 2 0 2 
z
" style="stroke: #2ca02c; stroke-opacity: 0.8"/>
    </defs>
    <g clip-path="url(#p74c14d9cd4)">
     <use xlink:href="#mc2916387c1" x="38.495" y="228.959219" style="fill: #2ca02c; fill-opacity: 0.8; stroke: #2ca02c; stroke-opacity: 0.8"/>
     <use xlink:href="#mc2916387c1" x="64.338973" y="206.662192" style="fill: #2ca02c; fill-opacity: 0.8; stroke: #2ca02c; stroke-opacity: 0.8"/>
     <use xlink:href="#mc2916387c1" x="90.182947" y="184.359219" style="fill: #2ca02c; fill-opacity: 0.8; stroke: #2ca02c; stroke-opacity: 0.8"/>
     <use xlink:href="#mc2916387c1" x="167.714867" y="117.468139" style="fill: #2ca02c; fill-opacity: 0.8; stroke: #2ca02c; stroke-opacity: 0.8"/>
     <use xlink:href="#mc2916387c1" x="219.402814" y="72.883005" style="fill: #2ca02c; fill-opacity: 0.8; stroke: #2ca02c; stroke-opacity: 0.8"/>
     <use xlink:href="#mc2916387c1" x="296.934735" y="6.116805" style="fill: #2ca02c; fill-opacity: 0.8; stroke: #2ca02c; stroke-opacity: 0.8"/>
    </g>
   </g>
   <g id="line2d_50">
    <defs>
     <path id="m04a4f0605d" d="M 0 2 
C 0.530406 2 1.03916 1.789267 1.414214 1.414214 
C 1.789267 1.03916 2 0.530406 2 0 
C 2 -0.530406 1.789267 -1.03916 1.414214 -1.414214 
C 1.03916 -1.789267 0.530406 -2 0 -2 
C -0.530406 -2 -1.03916 -1.789267 -1.414214 -1.414214 
C -1.789267 -1.03916 -2 -0.530406 -2 0 
C -2 0.530406 -1.789267 1.03916 -1.414214 1.414214 
C -1.03916 1.789267 -0.530406 2 0 2 
z
" style="stroke: #bcbd22; stroke-opacity: 0.8"/>
    </defs>
    <g clip-path="url(#p74c14d9cd4)">
     <use xlink:href="#m04a4f0605d" x="38.495" y="228.959219" style="fill: #bcbd22; fill-opacity: 0.8; stroke: #bcbd22; stroke-opacity: 0.8"/>
     <use xlink:href="#m04a4f0605d" x="64.338973" y="206.659219" style="fill: #bcbd22; fill-opacity: 0.8; stroke: #bcbd22; stroke-opacity: 0.8"/>
     <use xlink:href="#m04a4f0605d" x="90.182947" y="184.368139" style="fill: #bcbd22; fill-opacity: 0.8; stroke: #bcbd22; stroke-opacity: 0.8"/>
     <use xlink:href="#m04a4f0605d" x="167.714867" y="117.902245" style="fill: #bcbd22; fill-opacity: 0.8; stroke: #bcbd22; stroke-opacity: 0.8"/>
     <use xlink:href="#m04a4f0605d" x="219.402814" y="72.859219" style="fill: #bcbd22; fill-opacity: 0.8; stroke: #bcbd22; stroke-opacity: 0.8"/>
     <use xlink:href="#m04a4f0605d" x="296.934735" y="6.904739" style="fill: #bcbd22; fill-opacity: 0.8; stroke: #bcbd22; stroke-opacity: 0.8"/>
    </g>
   </g>
   <g id="line2d_51">
    <defs>
     <path id="m2d8629f472" d="M 0 2 
C 0.530406 2 1.03916 1.789267 1.414214 1.414214 
C 1.789267 1.03916 2 0.530406 2 0 
C 2 -0.530406 1.789267 -1.03916 1.414214 -1.414214 
C 1.03916 -1.789267 0.530406 -2 0 -2 
C -0.530406 -2 -1.03916 -1.789267 -1.414214 -1.414214 
C -1.789267 -1.03916 -2 -0.530406 -2 0 
C -2 0.530406 -1.789267 1.03916 -1.414214 1.414214 
C -1.03916 1.789267 -0.530406 2 0 2 
z
" style="stroke: #9467bd; stroke-opacity: 0.8"/>
    </defs>
    <g clip-path="url(#p74c14d9cd4)">
     <use xlink:href="#m2d8629f472" x="38.495" y="228.959219" style="fill: #9467bd; fill-opacity: 0.8; stroke: #9467bd; stroke-opacity: 0.8"/>
     <use xlink:href="#m2d8629f472" x="64.338973" y="206.659219" style="fill: #9467bd; fill-opacity: 0.8; stroke: #9467bd; stroke-opacity: 0.8"/>
     <use xlink:href="#m2d8629f472" x="90.182947" y="184.582219" style="fill: #9467bd; fill-opacity: 0.8; stroke: #9467bd; stroke-opacity: 0.8"/>
     <use xlink:href="#m2d8629f472" x="167.714867" y="117.923059" style="fill: #9467bd; fill-opacity: 0.8; stroke: #9467bd; stroke-opacity: 0.8"/>
     <use xlink:href="#m2d8629f472" x="219.402814" y="75.243832" style="fill: #9467bd; fill-opacity: 0.8; stroke: #9467bd; stroke-opacity: 0.8"/>
     <use xlink:href="#m2d8629f472" x="296.934735" y="31.586379" style="fill: #9467bd; fill-opacity: 0.8; stroke: #9467bd; stroke-opacity: 0.8"/>
    </g>
   </g>
   <g id="line2d_52">
    <defs>
     <path id="mb93acdf94d" d="M 0 2 
C 0.530406 2 1.03916 1.789267 1.414214 1.414214 
C 1.789267 1.03916 2 0.530406 2 0 
C 2 -0.530406 1.789267 -1.03916 1.414214 -1.414214 
C 1.03916 -1.789267 0.530406 -2 0 -2 
C -0.530406 -2 -1.03916 -1.789267 -1.414214 -1.414214 
C -1.789267 -1.03916 -2 -0.530406 -2 0 
C -2 0.530406 -1.789267 1.03916 -1.414214 1.414214 
C -1.03916 1.789267 -0.530406 2 0 2 
z
" style="stroke: #8c564b; stroke-opacity: 0.8"/>
    </defs>
    <g clip-path="url(#p74c14d9cd4)">
     <use xlink:href="#mb93acdf94d" x="38.495" y="228.959219" style="fill: #8c564b; fill-opacity: 0.8; stroke: #8c564b; stroke-opacity: 0.8"/>
     <use xlink:href="#mb93acdf94d" x="64.338973" y="206.677059" style="fill: #8c564b; fill-opacity: 0.8; stroke: #8c564b; stroke-opacity: 0.8"/>
     <use xlink:href="#mb93acdf94d" x="90.182947" y="184.924152" style="fill: #8c564b; fill-opacity: 0.8; stroke: #8c564b; stroke-opacity: 0.8"/>
     <use xlink:href="#mb93acdf94d" x="167.714867" y="124.265179" style="fill: #8c564b; fill-opacity: 0.8; stroke: #8c564b; stroke-opacity: 0.8"/>
     <use xlink:href="#mb93acdf94d" x="219.402814" y="97.261365" style="fill: #8c564b; fill-opacity: 0.8; stroke: #8c564b; stroke-opacity: 0.8"/>
     <use xlink:href="#mb93acdf94d" x="296.934735" y="87.615872" style="fill: #8c564b; fill-opacity: 0.8; stroke: #8c564b; stroke-opacity: 0.8"/>
    </g>
   </g>
   <g id="line2d_53">
    <defs>
     <path id="m506af799d5" d="M 0 2 
C 0.530406 2 1.03916 1.789267 1.414214 1.414214 
C 1.789267 1.03916 2 0.530406 2 0 
C 2 -0.530406 1.789267 -1.03916 1.414214 -1.414214 
C 1.03916 -1.789267 0.530406 -2 0 -2 
C -0.530406 -2 -1.03916 -1.789267 -1.414214 -1.414214 
C -1.789267 -1.03916 -2 -0.530406 -2 0 
C -2 0.530406 -1.789267 1.03916 -1.414214 1.414214 
C -1.03916 1.789267 -0.530406 2 0 2 
z
" style="stroke: #7f7f7f; stroke-opacity: 0.8"/>
    </defs>
    <g clip-path="url(#p74c14d9cd4)">
     <use xlink:href="#m506af799d5" x="38.495" y="228.959219" style="fill: #7f7f7f; fill-opacity: 0.8; stroke: #7f7f7f; stroke-opacity: 0.8"/>
     <use xlink:href="#m506af799d5" x="64.338973" y="207.108192" style="fill: #7f7f7f; fill-opacity: 0.8; stroke: #7f7f7f; stroke-opacity: 0.8"/>
     <use xlink:href="#m506af799d5" x="90.182947" y="185.191752" style="fill: #7f7f7f; fill-opacity: 0.8; stroke: #7f7f7f; stroke-opacity: 0.8"/>
     <use xlink:href="#m506af799d5" x="167.714867" y="130.452685" style="fill: #7f7f7f; fill-opacity: 0.8; stroke: #7f7f7f; stroke-opacity: 0.8"/>
     <use xlink:href="#m506af799d5" x="219.402814" y="114.967565" style="fill: #7f7f7f; fill-opacity: 0.8; stroke: #7f7f7f; stroke-opacity: 0.8"/>
     <use xlink:href="#m506af799d5" x="296.934735" y="87.895365" style="fill: #7f7f7f; fill-opacity: 0.8; stroke: #7f7f7f; stroke-opacity: 0.8"/>
    </g>
   </g>
   <g id="line2d_54">
    <defs>
     <path id="m370e17c5ca" d="M 0 2 
C 0.530406 2 1.03916 1.789267 1.414214 1.414214 
C 1.789267 1.03916 2 0.530406 2 0 
C 2 -0.530406 1.789267 -1.03916 1.414214 -1.414214 
C 1.03916 -1.789267 0.530406 -2 0 -2 
C -0.530406 -2 -1.03916 -1.789267 -1.414214 -1.414214 
C -1.789267 -1.03916 -2 -0.530406 -2 0 
C -2 0.530406 -1.789267 1.03916 -1.414214 1.414214 
C -1.03916 1.789267 -0.530406 2 0 2 
z
" style="stroke: #000000; stroke-opacity: 0.8"/>
    </defs>
    <g clip-path="url(#p74c14d9cd4)">
     <use xlink:href="#m370e17c5ca" x="38.495" y="228.959219" style="fill-opacity: 0.8; stroke: #000000; stroke-opacity: 0.8"/>
     <use xlink:href="#m370e17c5ca" x="64.338973" y="206.897085" style="fill-opacity: 0.8; stroke: #000000; stroke-opacity: 0.8"/>
     <use xlink:href="#m370e17c5ca" x="90.182947" y="186.476232" style="fill-opacity: 0.8; stroke: #000000; stroke-opacity: 0.8"/>
     <use xlink:href="#m370e17c5ca" x="167.714867" y="137.912779" style="fill-opacity: 0.8; stroke: #000000; stroke-opacity: 0.8"/>
     <use xlink:href="#m370e17c5ca" x="219.402814" y="117.937925" style="fill-opacity: 0.8; stroke: #000000; stroke-opacity: 0.8"/>
     <use xlink:href="#m370e17c5ca" x="296.934735" y="96.901592" style="fill-opacity: 0.8; stroke: #000000; stroke-opacity: 0.8"/>
    </g>
   </g>
   <g id="legend_1">
    <g id="text_16">
     <!-- Condensate size -->
     <g transform="translate(55.001119 17.667656) scale(0.1 -0.1)">
      <defs>
       <path id="DejaVuSans-43" d="M 4122 4306 
L 4122 3641 
Q 3803 3938 3442 4084 
Q 3081 4231 2675 4231 
Q 1875 4231 1450 3742 
Q 1025 3253 1025 2328 
Q 1025 1406 1450 917 
Q 1875 428 2675 428 
Q 3081 428 3442 575 
Q 3803 722 4122 1019 
L 4122 359 
Q 3791 134 3420 21 
Q 3050 -91 2638 -91 
Q 1578 -91 968 557 
Q 359 1206 359 2328 
Q 359 3453 968 4101 
Q 1578 4750 2638 4750 
Q 3056 4750 3426 4639 
Q 3797 4528 4122 4306 
z
" transform="scale(0.015625)"/>
       <path id="DejaVuSans-7a" d="M 353 3500 
L 3084 3500 
L 3084 2975 
L 922 459 
L 3084 459 
L 3084 0 
L 275 0 
L 275 525 
L 2438 3041 
L 353 3041 
L 353 3500 
z
" transform="scale(0.015625)"/>
      </defs>
      <use xlink:href="#DejaVuSans-43"/>
      <use xlink:href="#DejaVuSans-6f" x="69.824219"/>
      <use xlink:href="#DejaVuSans-6e" x="131.005859"/>
      <use xlink:href="#DejaVuSans-64" x="194.384766"/>
      <use xlink:href="#DejaVuSans-65" x="257.861328"/>
      <use xlink:href="#DejaVuSans-6e" x="319.384766"/>
      <use xlink:href="#DejaVuSans-73" x="382.763672"/>
      <use xlink:href="#DejaVuSans-61" x="434.863281"/>
      <use xlink:href="#DejaVuSans-74" x="496.142578"/>
      <use xlink:href="#DejaVuSans-65" x="535.351562"/>
      <use xlink:href="#DejaVuSans-20" x="596.875"/>
      <use xlink:href="#DejaVuSans-73" x="628.662109"/>
      <use xlink:href="#DejaVuSans-69" x="680.761719"/>
      <use xlink:href="#DejaVuSans-7a" x="708.544922"/>
      <use xlink:href="#DejaVuSans-65" x="761.035156"/>
     </g>
    </g>
    <g id="LineCollection_13">
     <path d="M 53.386744 36.665469 
L 53.386744 24.665469 
" style="fill: none; stroke: #2ca02c; stroke-opacity: 0.7; stroke-width: 1.5"/>
    </g>
    <g id="line2d_55">
     <g>
      <use xlink:href="#mebb0a7d8fa" x="53.386744" y="36.665469" style="fill: #2ca02c; fill-opacity: 0.7; stroke: #2ca02c; stroke-opacity: 0.7"/>
     </g>
    </g>
    <g id="line2d_56">
     <g>
      <use xlink:href="#mebb0a7d8fa" x="53.386744" y="24.665469" style="fill: #2ca02c; fill-opacity: 0.7; stroke: #2ca02c; stroke-opacity: 0.7"/>
     </g>
    </g>
    <g id="line2d_57">
     <path d="M 41.386744 30.665469 
L 65.386744 30.665469 
" style="fill: none; stroke: #2ca02c; stroke-opacity: 0.7; stroke-width: 1.5; stroke-linecap: square"/>
    </g>
    <g id="line2d_58">
     <g>
      <use xlink:href="#m0c71ace2a8" x="53.386744" y="30.665469" style="fill: #2ca02c; fill-opacity: 0.7; stroke: #2ca02c; stroke-opacity: 0.7"/>
     </g>
    </g>
    <g id="text_17">
     <!-- R=0.105 µm -->
     <g transform="translate(74.986744 34.865469) scale(0.12 -0.12)">
      <defs>
       <path id="DejaVuSans-52" d="M 2841 2188 
Q 3044 2119 3236 1894 
Q 3428 1669 3622 1275 
L 4263 0 
L 3584 0 
L 2988 1197 
Q 2756 1666 2539 1819 
Q 2322 1972 1947 1972 
L 1259 1972 
L 1259 0 
L 628 0 
L 628 4666 
L 2053 4666 
Q 2853 4666 3247 4331 
Q 3641 3997 3641 3322 
Q 3641 2881 3436 2590 
Q 3231 2300 2841 2188 
z
M 1259 4147 
L 1259 2491 
L 2053 2491 
Q 2509 2491 2742 2702 
Q 2975 2913 2975 3322 
Q 2975 3731 2742 3939 
Q 2509 4147 2053 4147 
L 1259 4147 
z
" transform="scale(0.015625)"/>
       <path id="DejaVuSans-b5" d="M 544 -1331 
L 544 3500 
L 1119 3500 
L 1119 1325 
Q 1119 872 1334 640 
Q 1550 409 1972 409 
Q 2434 409 2667 671 
Q 2900 934 2900 1459 
L 2900 3500 
L 3475 3500 
L 3475 806 
Q 3475 619 3529 530 
Q 3584 441 3700 441 
Q 3728 441 3778 458 
Q 3828 475 3916 513 
L 3916 50 
Q 3788 -22 3673 -56 
Q 3559 -91 3450 -91 
Q 3234 -91 3106 31 
Q 2978 153 2931 403 
Q 2775 156 2548 32 
Q 2322 -91 2016 -91 
Q 1697 -91 1473 31 
Q 1250 153 1119 397 
L 1119 -1331 
L 544 -1331 
z
" transform="scale(0.015625)"/>
      </defs>
      <use xlink:href="#DejaVuSans-52"/>
      <use xlink:href="#DejaVuSans-3d" x="69.482422"/>
      <use xlink:href="#DejaVuSans-30" x="153.271484"/>
      <use xlink:href="#DejaVuSans-2e" x="216.894531"/>
      <use xlink:href="#DejaVuSans-31" x="248.681641"/>
      <use xlink:href="#DejaVuSans-30" x="312.304688"/>
      <use xlink:href="#DejaVuSans-35" x="375.927734"/>
      <use xlink:href="#DejaVuSans-20" x="439.550781"/>
      <use xlink:href="#DejaVuSans-b5" x="471.337891"/>
      <use xlink:href="#DejaVuSans-6d" x="534.960938"/>
     </g>
    </g>
    <g id="LineCollection_14">
     <path d="M 53.386744 54.279219 
L 53.386744 42.279219 
" style="fill: none; stroke: #bcbd22; stroke-opacity: 0.7; stroke-width: 1.5"/>
    </g>
    <g id="line2d_59">
     <g>
      <use xlink:href="#m61a1384427" x="53.386744" y="54.279219" style="fill: #bcbd22; fill-opacity: 0.7; stroke: #bcbd22; stroke-opacity: 0.7"/>
     </g>
    </g>
    <g id="line2d_60">
     <g>
      <use xlink:href="#m61a1384427" x="53.386744" y="42.279219" style="fill: #bcbd22; fill-opacity: 0.7; stroke: #bcbd22; stroke-opacity: 0.7"/>
     </g>
    </g>
    <g id="line2d_61">
     <path d="M 41.386744 48.279219 
L 65.386744 48.279219 
" style="fill: none; stroke: #bcbd22; stroke-opacity: 0.7; stroke-width: 1.5; stroke-linecap: square"/>
    </g>
    <g id="line2d_62">
     <g>
      <use xlink:href="#mb9a1521845" x="53.386744" y="48.279219" style="fill: #bcbd22; fill-opacity: 0.7; stroke: #bcbd22; stroke-opacity: 0.7"/>
     </g>
    </g>
    <g id="text_18">
     <!-- R=0.082 µm -->
     <g transform="translate(74.986744 52.479219) scale(0.12 -0.12)">
      <use xlink:href="#DejaVuSans-52"/>
      <use xlink:href="#DejaVuSans-3d" x="69.482422"/>
      <use xlink:href="#DejaVuSans-30" x="153.271484"/>
      <use xlink:href="#DejaVuSans-2e" x="216.894531"/>
      <use xlink:href="#DejaVuSans-30" x="248.681641"/>
      <use xlink:href="#DejaVuSans-38" x="312.304688"/>
      <use xlink:href="#DejaVuSans-32" x="375.927734"/>
      <use xlink:href="#DejaVuSans-20" x="439.550781"/>
      <use xlink:href="#DejaVuSans-b5" x="471.337891"/>
      <use xlink:href="#DejaVuSans-6d" x="534.960938"/>
     </g>
    </g>
    <g id="LineCollection_15">
     <path d="M 53.386744 71.892969 
L 53.386744 59.892969 
" style="fill: none; stroke: #9467bd; stroke-opacity: 0.7; stroke-width: 1.5"/>
    </g>
    <g id="line2d_63">
     <g>
      <use xlink:href="#m75425847a0" x="53.386744" y="71.892969" style="fill: #9467bd; fill-opacity: 0.7; stroke: #9467bd; stroke-opacity: 0.7"/>
     </g>
    </g>
    <g id="line2d_64">
     <g>
      <use xlink:href="#m75425847a0" x="53.386744" y="59.892969" style="fill: #9467bd; fill-opacity: 0.7; stroke: #9467bd; stroke-opacity: 0.7"/>
     </g>
    </g>
    <g id="line2d_65">
     <path d="M 41.386744 65.892969 
L 65.386744 65.892969 
" style="fill: none; stroke: #9467bd; stroke-opacity: 0.7; stroke-width: 1.5; stroke-linecap: square"/>
    </g>
    <g id="line2d_66">
     <g>
      <use xlink:href="#m8f94af21e9" x="53.386744" y="65.892969" style="fill: #9467bd; fill-opacity: 0.7; stroke: #9467bd; stroke-opacity: 0.7"/>
     </g>
    </g>
    <g id="text_19">
     <!-- R=0.058 µm -->
     <g transform="translate(74.986744 70.092969) scale(0.12 -0.12)">
      <use xlink:href="#DejaVuSans-52"/>
      <use xlink:href="#DejaVuSans-3d" x="69.482422"/>
      <use xlink:href="#DejaVuSans-30" x="153.271484"/>
      <use xlink:href="#DejaVuSans-2e" x="216.894531"/>
      <use xlink:href="#DejaVuSans-30" x="248.681641"/>
      <use xlink:href="#DejaVuSans-35" x="312.304688"/>
      <use xlink:href="#DejaVuSans-38" x="375.927734"/>
      <use xlink:href="#DejaVuSans-20" x="439.550781"/>
      <use xlink:href="#DejaVuSans-b5" x="471.337891"/>
      <use xlink:href="#DejaVuSans-6d" x="534.960938"/>
     </g>
    </g>
    <g id="LineCollection_16">
     <path d="M 53.386744 89.506719 
L 53.386744 77.506719 
" style="fill: none; stroke: #8c564b; stroke-opacity: 0.7; stroke-width: 1.5"/>
    </g>
    <g id="line2d_67">
     <g>
      <use xlink:href="#mfb77e1186e" x="53.386744" y="89.506719" style="fill: #8c564b; fill-opacity: 0.7; stroke: #8c564b; stroke-opacity: 0.7"/>
     </g>
    </g>
    <g id="line2d_68">
     <g>
      <use xlink:href="#mfb77e1186e" x="53.386744" y="77.506719" style="fill: #8c564b; fill-opacity: 0.7; stroke: #8c564b; stroke-opacity: 0.7"/>
     </g>
    </g>
    <g id="line2d_69">
     <path d="M 41.386744 83.506719 
L 65.386744 83.506719 
" style="fill: none; stroke: #8c564b; stroke-opacity: 0.7; stroke-width: 1.5; stroke-linecap: square"/>
    </g>
    <g id="line2d_70">
     <g>
      <use xlink:href="#mc07bed1c6e" x="53.386744" y="83.506719" style="fill: #8c564b; fill-opacity: 0.7; stroke: #8c564b; stroke-opacity: 0.7"/>
     </g>
    </g>
    <g id="text_20">
     <!-- R=0.042 µm -->
     <g transform="translate(74.986744 87.706719) scale(0.12 -0.12)">
      <use xlink:href="#DejaVuSans-52"/>
      <use xlink:href="#DejaVuSans-3d" x="69.482422"/>
      <use xlink:href="#DejaVuSans-30" x="153.271484"/>
      <use xlink:href="#DejaVuSans-2e" x="216.894531"/>
      <use xlink:href="#DejaVuSans-30" x="248.681641"/>
      <use xlink:href="#DejaVuSans-34" x="312.304688"/>
      <use xlink:href="#DejaVuSans-32" x="375.927734"/>
      <use xlink:href="#DejaVuSans-20" x="439.550781"/>
      <use xlink:href="#DejaVuSans-b5" x="471.337891"/>
      <use xlink:href="#DejaVuSans-6d" x="534.960938"/>
     </g>
    </g>
    <g id="LineCollection_17">
     <path d="M 53.386744 107.120469 
L 53.386744 95.120469 
" style="fill: none; stroke: #7f7f7f; stroke-opacity: 0.7; stroke-width: 1.5"/>
    </g>
    <g id="line2d_71">
     <g>
      <use xlink:href="#m83fb2cf5b7" x="53.386744" y="107.120469" style="fill: #7f7f7f; fill-opacity: 0.7; stroke: #7f7f7f; stroke-opacity: 0.7"/>
     </g>
    </g>
    <g id="line2d_72">
     <g>
      <use xlink:href="#m83fb2cf5b7" x="53.386744" y="95.120469" style="fill: #7f7f7f; fill-opacity: 0.7; stroke: #7f7f7f; stroke-opacity: 0.7"/>
     </g>
    </g>
    <g id="line2d_73">
     <path d="M 41.386744 101.120469 
L 65.386744 101.120469 
" style="fill: none; stroke: #7f7f7f; stroke-opacity: 0.7; stroke-width: 1.5; stroke-linecap: square"/>
    </g>
    <g id="line2d_74">
     <g>
      <use xlink:href="#mb0fe5d423c" x="53.386744" y="101.120469" style="fill: #7f7f7f; fill-opacity: 0.7; stroke: #7f7f7f; stroke-opacity: 0.7"/>
     </g>
    </g>
    <g id="text_21">
     <!-- R=0.040 µm -->
     <g transform="translate(74.986744 105.320469) scale(0.12 -0.12)">
      <use xlink:href="#DejaVuSans-52"/>
      <use xlink:href="#DejaVuSans-3d" x="69.482422"/>
      <use xlink:href="#DejaVuSans-30" x="153.271484"/>
      <use xlink:href="#DejaVuSans-2e" x="216.894531"/>
      <use xlink:href="#DejaVuSans-30" x="248.681641"/>
      <use xlink:href="#DejaVuSans-34" x="312.304688"/>
      <use xlink:href="#DejaVuSans-30" x="375.927734"/>
      <use xlink:href="#DejaVuSans-20" x="439.550781"/>
      <use xlink:href="#DejaVuSans-b5" x="471.337891"/>
      <use xlink:href="#DejaVuSans-6d" x="534.960938"/>
     </g>
    </g>
    <g id="LineCollection_18">
     <path d="M 53.386744 124.734219 
L 53.386744 112.734219 
" style="fill: none; stroke: #000000; stroke-opacity: 0.7; stroke-width: 1.5"/>
    </g>
    <g id="line2d_75">
     <g>
      <use xlink:href="#mc28b044e3a" x="53.386744" y="124.734219" style="fill-opacity: 0.7; stroke: #000000; stroke-opacity: 0.7"/>
     </g>
    </g>
    <g id="line2d_76">
     <g>
      <use xlink:href="#mc28b044e3a" x="53.386744" y="112.734219" style="fill-opacity: 0.7; stroke: #000000; stroke-opacity: 0.7"/>
     </g>
    </g>
    <g id="line2d_77">
     <path d="M 41.386744 118.734219 
L 65.386744 118.734219 
" style="fill: none; stroke: #000000; stroke-opacity: 0.7; stroke-width: 1.5; stroke-linecap: square"/>
    </g>
    <g id="line2d_78">
     <g>
      <use xlink:href="#m530ce4cb80" x="53.386744" y="118.734219" style="fill-opacity: 0.7; stroke: #000000; stroke-opacity: 0.7"/>
     </g>
    </g>
    <g id="text_22">
     <!-- R=0.037 µm -->
     <g transform="translate(74.986744 122.934219) scale(0.12 -0.12)">
      <defs>
       <path id="DejaVuSans-37" d="M 525 4666 
L 3525 4666 
L 3525 4397 
L 1831 0 
L 1172 0 
L 2766 4134 
L 525 4134 
L 525 4666 
z
" transform="scale(0.015625)"/>
      </defs>
      <use xlink:href="#DejaVuSans-52"/>
      <use xlink:href="#DejaVuSans-3d" x="69.482422"/>
      <use xlink:href="#DejaVuSans-30" x="153.271484"/>
      <use xlink:href="#DejaVuSans-2e" x="216.894531"/>
      <use xlink:href="#DejaVuSans-30" x="248.681641"/>
      <use xlink:href="#DejaVuSans-33" x="312.304688"/>
      <use xlink:href="#DejaVuSans-37" x="375.927734"/>
      <use xlink:href="#DejaVuSans-20" x="439.550781"/>
      <use xlink:href="#DejaVuSans-b5" x="471.337891"/>
      <use xlink:href="#DejaVuSans-6d" x="534.960938"/>
     </g>
    </g>
   </g>
  </g>
 </g>
 <defs>
  <clipPath id="p74c14d9cd4">
   <rect x="38.495" y="5.959219" width="263.608529" height="223"/>
  </clipPath>
 </defs>
</svg>
